<?xml version="1.0" encoding="utf-8"?>
<!-- Generator: Adobe Illustrator 27.0.0, SVG Export Plug-In . SVG Version: 6.00 Build 0)  -->
<svg version="1.1" id="Layer_1" xmlns="http://www.w3.org/2000/svg" xmlns:xlink="http://www.w3.org/1999/xlink" x="0px" y="0px"
     viewBox="0 0 48 48" enable-background="new 0 0 48 48" xml:space="preserve">
<rect x="1.2" y="7.3" width="45.6" height="33.3"/>
<rect x="1.2" y="7.3" fill="none" width="45.6" height="33.3"/>
<g>
    <rect x="18.3" y="31.2" fill="#00ACD4" width="8.2" height="4.1"/>
    <polygon fill="#00ACD4" points="34.5,23 32.2,28.8 32.2,28.8 32.2,28.8 30,23 18.3,23 18.3,27.1 26.4,27.1 26.4,27.1 26.4,27
        29.6,35.2 34.8,35.2 38,27 38,35.2 46.4,35.2 46.4,23     "/>
    <polygon fill="#00ACD4" points="1.7,35.3 10.1,35.3 10.1,31.2 18.3,31.2 18.3,27.1 10.1,27.1 10.1,23 18.3,23 18.3,18.9 1.7,18.9     
        "/>
</g>
</svg>