<?xml version="1.0" encoding="UTF-8"?><svg id="a" xmlns="http://www.w3.org/2000/svg" viewBox="0 0 47.97 41.6"><path d="M46.77,31.8L29.77,3.7c-1.4-2.4-3.5-3.7-5.8-3.7s-4.4,1.4-5.8,3.7L1.27,31.8c-1.4,2.4-1.7,4.9-.6,6.8,1.1,1.9,3.3,3,6.1,3H41.17c2.8,0,5-1.1,6.1-3,1.1-1.9,.9-4.4-.5-6.8Zm-5.6,7.6H6.77c-1.1,0-2-.2-2.7-.6H43.87c-.7,.4-1.6,.6-2.7,.6Zm3.5-1h-9.8c.3-.6-1.1-2.3-2.2-3.5-.1-.1-1.9-2.2-2.8-3.2-.2-.3-.3-.7-.2-1l.6-2,1,1c.3,.2,.5,.1,.7-.1,.2-.2,.4-.3,.2-.6-.3-.5-.8-1.1-1.4-1.8l-.1-.1c.9-3.2,2-7.5,2.1-7.7,0,0,.2-.6-.2-1l-.6-.7c-.1-.1-.2,0-.2,0l-4.2,7s-.1,.2-.2,.3l-.2,.2-1.4,1.2s-.2,.2-.5-.1c-2.4-2.5-3.9-3.8-4.7-4.6-.4-.4-.3-1-.2-1.2,.4-1.3,.9-3.4,1-3.6,0,0,.1-.4-.2-.8l-.4-.3c-.1-.1-.1,0-.2,0l-2.3,4c-.4-.3-.8-.6-.9-.6,0,.1,.2,.5,.4,.9l-4.4,1.8s-.1,.1,0,.2l.4,.5c.3,.3,.7,.3,.7,.3,.2,0,2.3-.3,3.7-.4,.2,0,.9-.1,1.2,.4,.7,.9,1.8,2.6,3.9,5.3,.2,.3,0,.5,0,.5l-1.3,1.1s-.1,.1-.3,.2c-.1,.1-.3,.1-.3,.1l-7.5,3.2s-.1,.1,0,.2l.6,.7c.4,.5,1,.4,1,.4,.2,0,4.6-.6,7.9-1l.1,.1c.6,.6,1.1,1.2,1.6,1.6,.3,.2,.5,.1,.7-.1s.4-.3,.2-.6c-.2-.3-.5-.8-.8-1.2l2.1-.3c.4,0,.8,.1,1,.4,.8,.9,2.7,3.1,2.7,3.2,.4,.5,1,1.2,1.6,1.8H3.57c-1.3-1.2-1.5-3.1-.1-5.4L20.07,4.9c2.1-3.5,5.6-3.5,7.8,0l17,28.1c1.3,2.2,1.1,4.2-.2,5.4Z"/><polygon points="36.47 35.3 37.77 32.7 35.17 34.2 34.67 31.3 33.47 34.1 32.07 33.4 32.97 34.4 33.67 34.8 34.47 33 34.77 34.3 34.87 35 36.57 33.9 35.67 35.7 37.67 35.9 35.87 36.8 37.17 38 37.87 38 36.77 36.9 39.37 35.6 36.47 35.3"/><polygon points="26.27 38 27.37 38 28.67 37.3 27.37 36.1 29.07 36.3 28.97 35.3 28.27 34.6 28.47 35.7 25.87 35.4 27.77 37.2 26.27 38"/></svg>