<?xml version="1.0" encoding="UTF-8"?><svg id="a" xmlns="http://www.w3.org/2000/svg" viewBox="0 0 48 41.6"><path d="M46.7,31.8L29.8,3.7c-1.4-2.4-3.5-3.7-5.8-3.7s-4.4,1.4-5.8,3.7L1.3,31.8c-1.5,2.4-1.7,4.9-.6,6.8,1.1,1.9,3.3,3,6.1,3H41.2c2.8,0,5-1.1,6.1-3,1.1-1.9,.9-4.4-.6-6.8Zm-5.5,7.6H6.8c-4.1,0-5.8-2.9-3.6-6.4L20.2,4.9c2.1-3.5,5.6-3.5,7.8,0l17,28.1c2,3.5,.3,6.4-3.8,6.4Z"/><path d="M17.3,22.8c.3-.2,.8-.4,1-.3,.1,0,.1,.2,.1,.4l-.2,2.8h.8l.2-2.8h0c0-.7-.3-1-.5-1.1-.7-.4-1.6,.2-1.8,.3l-3.6,2.3,.4,.6,3.6-2.2Z"/><path d="M13.5,33.4c0-.6,.6-1.1,.7-1.1l1.8-1.2q3.5-2.3,4.6-3c1.2-.7,1.3-1.8,1.3-1.8h-.8s-.1,.7-.9,1.2q-1.1,.7-4.6,3l-1.8,1.2h0s-.9,.7-1,1.7c0,.6,.2,1.2,.7,1.7l4.5,3.7,.5-.6-4.5-3.8c-.3-.3-.5-.7-.5-1Z"/><path d="M22.8,21.2c.2,.2,.7,.5,1.3,1l2.2-1-2.8-2s-.7-.3-1.2,.3c-.4,.5-.3,1.1,.5,1.7Z"/><path d="M31.9,14.2c-1.1-.1-1.2,1.4-1.2,1.4l-.5,7.5-1.4-.1-2.1-1.5-1.3,1.6,2.8,2-.2,3.5-2,.8,.4,1.5-1.7-.9-5.4,2.3s-1,.6-.6,1.5c.4,1,2,.4,2,.4l7.6-3.3-4.6,5.1s-.9,1.1,.1,1.8c1,.8,1.9-.5,1.9-.5l6.2-7.3,1-14.5s.1-1.2-1-1.3Z"/><path d="M29.8,22.5s.1,0,0,0l.4-4.4h-.1c-1.2-.1-2.3,.8-2.4,2.1-.1,1.2,.9,2.2,2.1,2.3Z"/><path d="M22.5,25.4c.1,1.1-.6,1.6-.6,1.6l4,3.3-2.4-3.3,2.1,.2-1.6-1h3.4l-3.6-.9,1.4-1-1.6,.2,2.8-3.1-3.7,2-.2-1.9-.9,2.6c-.2,.1,.7,.2,.9,1.3Z"/></svg>