<?xml version="1.0" encoding="UTF-8"?><svg id="a" xmlns="http://www.w3.org/2000/svg" viewBox="0 0 48 41.6"><path d="M46.7,31.8L29.8,3.7c-1.4-2.4-3.5-3.7-5.8-3.7s-4.4,1.4-5.8,3.7L1.3,31.8c-1.5,2.4-1.7,4.9-.6,6.8,1.1,1.9,3.3,3,6.1,3H41.2c2.8,0,5-1.1,6.1-3s.9-4.4-.6-6.8Zm-5.5,7.6H6.8c-4.1,0-5.8-2.9-3.6-6.4L20.2,4.9c2.1-3.5,5.6-3.5,7.8,0l17,28.1c2,3.5,.3,6.4-3.8,6.4Z"/><path d="M28.1,36.7c-.1,0-.9,.1-1.4,.1h-.5c-.7-1.5,0-10.4,0-10.4l13-1.6-7-11.7v2.6c1.2,.6,2.1,1.8,2.1,3.2,0,2-1.6,3.5-3.5,3.5s-3.5-1.6-3.5-3.5c0-1.4,.9-2.7,2.1-3.2v-2.9l-5.1,.6,1.7,11.5c-1,.5-1.5,1.8-2.2,4.4-.4,1.7-1.2,7.3-3,7.3-.4-.1-.2-.2-.9-.1-1.2,.1-1.8-.7-2.8,0h-.4l1.2-3.3-.5-3.5,1.5,.8,.6,5s.3,.3,.9,.3c.7-.1,.8-.6,.8-.6l-.7-5.6-2.5-1.9-2.1-2.1,1.4-2.1,.1-3.3s-.2-.7-.8-.6c-.6,.1-.8,.6-.8,.6l-.2,2.6-1.3,2-1.9,1.9-1.7,1-2.2,.3s-.6,.2-.5,.8c0,.6,.6,.7,.6,.7l2.4-.2,2.1-1.4,2.1,2.1,.6,3.2-1,3s0,.5,.6,.7h-.7c-1.3-.5-4.1-.1-4.2,0H3c0,.2,.1,.3,.2,.4,.5,.9,1.8,1.5,3.6,1.5H41.2c1.8,0,3.1-.6,3.7-1.6,.1-.1,.1-.3,.2-.4h-14.5c-.6-.2-1.1-.3-2.5-.1Z"/><path d="M20.5,24.8c-.2,.1-.3,.3-.3,.5s.3,.3,.6,.2c.3-.1,1.5-.6,1.5-.6,0,0-1.5-.3-1.8-.1Z"/><path d="M23.7,24.5h1.6s-1.2-.7-1.6-.7c-.3,0-.4,.1-.4,.3-.1,.2,.1,.4,.4,.4Z"/><path d="M22.6,28.7c.2-.3,.9-1.5,.9-1.5,0,0-1.1,.6-1.3,.9-.2,.2-.2,.5-.1,.6,.1,.2,.3,.3,.5,0Z"/><path d="M22.5,25.8c-.2,.1-.3,.3-.2,.5,.1,.2,.3,.3,.5,.1,.3-.2,1.4-1,1.4-1,0,0-1.4,.2-1.7,.4Z"/><path d="M27.6,18.9c0,1.7,1.4,3.1,3.1,3.1s3.1-1.4,3.1-3.1c0-1.2-.7-2.3-1.8-2.8l-.2-.1v-3.5l-2.1-3.5v7l-.2,.1c-1.2,.5-1.9,1.6-1.9,2.8Zm3.1-.7c.4,0,.7,.3,.7,.7s-.3,.7-.7,.7-.7-.3-.7-.7c.1-.3,.4-.7,.7-.7Z"/><path d="M18.9,18.6c0,1.1,.9,1.9,1.9,1.9,1.1,0,1.9-.9,1.9-1.9,0-.7-.4-1.3-.9-1.7v-5.6c0-.6-.5-1-1-1-.6,0-1,.5-1,1v.6h-.9v.4h.9v1.2h-.9v.4h.9v1.2h-.9v.4h.9v1.4c-.5,.4-.9,1-.9,1.7Zm1.2-1.3l.2-.1v-5.8c0-.4,.3-.6,.6-.6,.4,0,.6,.3,.6,.6v5.8l.2,.1c.5,.3,.7,.8,.7,1.3,0,.9-.7,1.5-1.5,1.5s-1.5-.7-1.5-1.5c-.1-.6,.2-1.1,.7-1.3Z"/><polygon points="20.7 9.8 21.1 9.8 21.1 9.3 21.6 9.3 21.6 8.9 21.1 8.9 21.1 8.4 20.7 8.4 20.7 8.9 20.2 8.9 20.2 9.3 20.7 9.3 20.7 9.8"/><path d="M20.9,19.4c.4,0,.8-.4,.8-.8s-.3-.7-.6-.8v-6.5c0-.1-.1-.2-.2-.2s-.2,.1-.2,.2v6.5c-.4,.1-.6,.4-.6,.8s.3,.8,.8,.8Z"/><path d="M12.9,25.4c.9-.1,1.5-.9,1.4-1.8s-.9-1.5-1.8-1.4c-.9,.1-1.5,.9-1.4,1.8s.9,1.5,1.8,1.4Z"/></svg>