<?xml version="1.0" encoding="UTF-8"?><svg id="a" xmlns="http://www.w3.org/2000/svg" viewBox="0 0 48.08 41.6"><path d="M46.8,31.8L29.9,3.7c-1.4-2.4-3.5-3.7-5.8-3.7s-4.4,1.4-5.8,3.7L1.3,31.8c-1.5,2.4-1.7,4.9-.6,6.8,1.1,1.9,3.3,3,6.1,3H41.2c2.8,0,5-1.1,6.1-3,1.2-2,1-4.4-.5-6.8Zm-5.5,7.5H6.9c-4.1,0-5.8-2.9-3.6-6.4L20.2,4.8c2.1-3.5,5.6-3.5,7.8,0l16.9,28.1c2.1,3.5,.5,6.4-3.6,6.4Z"/><path d="M42.3,35.3c-.8-.1,.2-.4-.9-.4s-.9-.3-1.4,0-1.2-.1-1.7-.1h-.2c1.9-.3,1.8-1.6,1.8-1.6,0,0,.2-2.6-.2-4.9-.5-3.3-2.4-2.8-2.4-2.8-.7,.2-.9,.9-.8,1.7l-1.6,2.3-3.5,2s-.8,.4-.5,1.1c0,.1,.1,.1,.1,.2l-5,.2s-1.2,.1-1.3,1.2c0,.7,.6,1,.9,1.1-1.1-.1-1.5-.6-1.7-.6-.3,0-.1,.2-1.2,.3-1,.1-.5-.3-1.4-.3s.3-.7-1.5,0q-1.7,.7-2.5,.7c-.9,0-.1,.2-1.7-.1-1.6-.3-1.8-.9-2.2-.6-.4,.4-2.9,.4-3.2,.4-.1-.1-1.1-.7-1.1-.7,0,0-1-.3-1.2,0s-1.4,.4-2.2,.4c-.9,0-.9-.1-1.2-.1-.2,0-.7,0-1.4,.1-.3,.9-.2,1.7,.2,2.4,.6,1,1.9,1.6,3.7,1.6H41.4c1.8,0,3.1-.6,3.7-1.6,.3-.6,.4-1.3,.2-2.1-1.2,.1-2.6,.3-3,.2Zm-13,0c-.4-.1-1,.4-1.9,.2s.2-.2-1.1-.2c.6,0,1.9-.1,3.5-.2-.2,.2-.3,.2-.5,.2Zm1.8-.1c-.2,0-.3-.1-.5-.1h1.1c-.1,0-.3,.1-.6,.1Zm2.7,.1c-.8,0-1.2-.1-1.2-.1l-.4-.2c.9,0,1.9-.1,2.7-.1-.2,.1-.6,.4-1.1,.4Zm-1.2-2.6l3.4-1.6,.8-1.2c.1,1.4,.4,2.7,.4,2.7l-4.6,.1Z"/><path d="M19,9.5c1-.3,.5-.1,1.1-.1s.5,0,1.7,.7c1.1,.7,.4,0,.9,0,.6,0,.2-.4,.9-.3,.7,.1,.6,.3,.7,.3,.2,0,.4-.5,1.4-.6s.2,0,.8-.2c.6-.2,.9,.3,1.2,.2,.3-.1,.2,.1,.4,.5,.2,.4,.3-.4,.7-.4,.5,0,.5,.4,.5,.4l.5-.4h.1l-2.6-4.4c-.9-1.5-2.1-2.4-3.4-2.4s-2.5,.8-3.4,2.4l-3,5c.4,0,.6-.5,1.5-.7Z"/><path d="M10.5,25.4h2.9c.1,0,.2-.1,.2-.2s-.1-.2-.2-.2h-2.9c-.1,0-.2,.1-.2,.2s.1,.2,.2,.2Z"/><path d="M11.3,27.9c-.1,0-.2,.1-.2,.2s.1,.2,.2,.2h4c.1,0,.2-.1,.2-.2s-.1-.2-.2-.2h-4Z"/><path d="M24.8,27.2h4c.1,0,.2-.1,.2-.2s0-.2-.2-.2h-4c-.1,0-.2,.1-.2,.2s.1,.2,.2,.2Z"/><path d="M13.9,21.5h2.7c.1,0,.2-.1,.2-.2s-.1-.2-.2-.2h-2.7c-.1,0-.2,.1-.2,.2s.1,.2,.2,.2Z"/><path d="M27,29.5h2.7c.1,0,.2-.1,.2-.2s-.1-.2-.2-.2h-2.7c-.1,0-.2,.1-.2,.2s.1,.2,.2,.2Z"/><path d="M25.9,24.6c-.1,0-.2,.1-.2,.2s.1,.2,.2,.2h4.1c.1,0,.2-.1,.2-.2s-.1-.2-.2-.2h-4.1Z"/><path d="M6.1,31.2h5.6c.1,0,.2-.1,.2-.2s-.1-.2-.3-.2H6.1c-.1,0-.2,.1-.2,.2-.1,.1,0,.2,.2,.2Z"/><path d="M16.8,30.6h3.1c.1,0,.2-.1,.2-.2s-.1-.2-.2-.2h-3.1c-.1,0-.2,.1-.2,.2s0,.2,.2,.2Z"/><path d="M28.4,22.3c0-.1-.1-.2-.2-.2h-4.9c-.1,0-.2,.1-.2,.2s.1,.2,.2,.2h4.9c.1,0,.2-.1,.2-.2Z"/><circle cx="35" cy="24.8" r="1.9"/><path d="M20.3,28.6c.1,0,.3,0,.5-.2s.6-.9,.6-.9c0,0,.1-.2,.2-.3,.1-.1,.1-.3,0-.5v-.4s-.2,.1-.3,0c0,0,0,.3-.1,.4q0,.1-.1,.1l-.1,.1s0,.1-.1,.2v.2h-.1v.1h-.1v.1h-.1v.1s0,.1-.1,.1h-.1s0,.1-.1,.1h-.1c0-.1,0,0,0,0,0,0,0,.1-.1,.1v-.1s0,.1-.1,.1-.1-.1-.1-.1c0,0,0-.1,0,0s-.1,0-.1,0l-.1-.1h-.1s0-.1-.1-.1v-.1h-.1v-.1h-.1v-.1h-.1v-.2s0-.1-.1-.2l-.1-.1-.1-.1c0-.1-.1-.4-.1-.4h-.3v.4c0,.2-.1,.4,0,.5s.2,.3,.2,.3c0,0,.4,.7,.6,.9,.2,.2,.4,.2,.5,.2h.5Z"/><path d="M20.1,27.8q0,.1,0,0h.1v-.2h-.1v.2Z"/><path d="M20.3,27.7q0,.1,0,0c.1,.1,.1,0,.1,0v-.2h-.2c.1,.1,.1,.2,.1,.2Z"/><path d="M20.6,27.5h-.1v.2c0,.1,.1,.1,.1,.1,0,0,0-.1,.1-.1-.1,0-.1-.2-.1-.2h0Z"/><path d="M20.6,27.5h0v.2h.1c0-.1,0-.2-.1-.2q.1-.1,0,0c.1-.1,0,0,0,0Z"/><path d="M20.7,27.3s0,.1,0,0v.1s.1,0,0-.1c.1,.1,.1,0,0,0q.1,0,0,0Z"/><path d="M20.9,27.3c0,.1,0,0,0,0h0c.1-.1,.1-.2,.1-.2h-.1v.2Z"/><path d="M22.5,28.6c.2,.1,.3,.5,.3,.6s.3,.2,.4,.2,.4,0,.5-.2c0-.2,0-.3,.1-.4,0-.1,.3,0,.3-.2s0-.4-.1-.6c-.1-.1-.2-.1-.3-.1s-.2-.1-.4-.1-.3,0-.6-.1c-.3-.1-.8-.3-.8-.3l-.2,.2c-.1,.1-.2,.4-.2,.4,0,0,.2,.1,.3,.2,0,.1,.5,.3,.7,.4Z"/><path d="M24.1,24.8c-.1-.2-.4-.3-.4-.5s-.1-.4-.2-.5-.4,.2-.5,.2c-.2,.1-.1,.3-.1,.3,0,0,0,.1-.2,.2l-.5,.5,.2,.2c.1,.1-.1,.4-.1,.4,0,0,.3-.1,.4-.2,0,0,.3-.1,.6-.1,.2,0,.5,.1,.7-.1,.1,0,.2-.2,.1-.4Z"/><path d="M18.1,24.7c-.1,.1-.1,.4-.1,.5s0,.1-.1,.1-.1,.1-.1,.2,.2,.5,.2,.6,.2,.2,.3,.3,.3,.1,.3,.1h.4l.1,.1v.3s-.2-.8,0,0h.1l.1,.1s.1,0,.1,.1h.2s0-.1,.1,0c.1,0,.1,.2,.1,.2l.1-.1,.1,.1s0-.1,.1-.1c0,0,.1,0,.1,.1h0v.3h.2v-.3c0-.1-.1-.1-.1-.1h.1v.3h.2s0-.1-.1-.2l-.1-.1h0s.1,0,.1,.1h0c0,.1,.1,.2,.1,.2h.1v-.1s0-.2-.1-.2h-.1s0-.1,.1-.1h.1v.2s.1,0,.1-.1v-.1h-.1l.1,.1v-.2l.1-.1v.1h0s.1,0,.1-.1l-.1-.1h.1c.2-.8,0,0,0,0v-.3l.1-.1h.4s.2,0,.3-.1c.1-.1,.3-.2,.3-.3s.2-.5,.2-.6-.1-.2-.1-.2q-.1,0-.1-.1c0-.1,0-.4-.1-.5,0,0-.1-.5-.3-.6h.1s0-.2,.1-.4c.1-.2,.1-.4,.1-.4,0,0,0,.2-.1,.4,0,.1-.1,.4,0,.5,0,0,.2,.2,.2,.3v.2s.1,.3,.1,.4,.1,0,.1-.2,.1-.3,.1-.3c0,0,.3-.6,0-1.4s-.8-1.1-1.4-1.4-.9-.3-.9-.3c0,0-.3,0-.9,.3s-1.2,.6-1.4,1.4,0,1.4,0,1.4v.3c0,.2,.1,.2,.1,.2,0-.1,.1-.4,.1-.4v-.2c0-.2,.2-.3,.2-.3v-.5c0-.1-.1-.4-.1-.4,0,0,0,.2,.1,.4,.1,.2,.1,.4,.1,.4h.1c-.2,.2-.3,.7-.3,.7Zm2.3,.1c0-.1,.5-.3,.6-.3s.3,.1,.4,.1,.4,0,.4,.5c0,.4,0,.6-.1,.6-.1,.1-.4,.1-.4,.1h-.1s-.3-.1-.4-.2c-.1,0-.2-.1-.3-.1,0-.1-.1-.3-.1-.4v-.3Zm-.3,.8c0-.1,0-.2,0,0,.2,0,.4,.4,.4,.5v.2c0,.1-.2,.2-.2,.2h-.1s-.1-.3-.1-.4v-.5Zm-.1,0v.5c0,.1-.1,.4-.1,.4,0,.1-.1,0-.1,0l-.2-.2v-.2c0-.2,.2-.6,.3-.6,.1-.1,.1,0,.1,.1Zm-1.3-1c.1,0,.3-.1,.4-.1s.5,.2,.6,.3c0,.1,.1,.2,0,.3,0,.1-.1,.3-.1,.4s-.2,.1-.3,.1-.3,.2-.4,.2h-.1s-.3,0-.4-.1-.2-.2-.1-.6c0-.5,.3-.5,.4-.5Z"/><path d="M19.9,27.8s0,.1,0,0c0,.1,.1,.1,.1,0v-.2h-.1v.2Z"/><path d="M19.8,27.8s.1,0,0,0c.1-.2,.1-.3,.1-.3h-.2v.2l.1,.1Z"/><path d="M19.5,27.5v.2l.1,.1,.1-.1v-.2h-.2Z"/><path d="M19.4,27.6h0s.1,0,0,0c.1-.1,0-.1,0-.1h-.1c.1,0,.1,.1,.1,.1Z"/><path d="M19.3,27.4h0s.1-.1,0,0c.1-.1,0-.1,0-.1v.1Z"/><path d="M19.2,27.3s0,.1,0,0v-.2h-.1s0,.1,.1,.2h0Z"/><path d="M17,27.9c-.2,0-.3,.1-.4,.1s-.2,0-.3,.1c-.2,.1-.2,.3-.2,.5s.2,.1,.3,.2c0,.1,.1,.2,.1,.4s.4,.2,.5,.2,.3-.1,.4-.2c0-.1,.2-.5,.3-.6,.2-.1,.7-.4,.8-.4s.3-.2,.3-.2c0,0-.1-.3-.2-.4l-.2-.2s-.5,.2-.8,.3c-.3,.2-.4,.2-.6,.2Z"/><path d="M16.6,23.9c-.1,.1-.2,.3-.2,.5s-.3,.3-.4,.5c-.1,.2,0,.4,.2,.6s.4,.1,.7,.1c.2,0,.5,.1,.6,.1l.4,.2s-.2-.3-.1-.4l.2-.2-.5-.5-.2-.2s0-.2-.1-.3l-.6-.4Z"/><path d="M19.9,27.1h0c-.1,.2-.1,.4-.1,.4h.2c.1,0,0-.3-.1-.4,.1,0,0,0,0,0Z"/><path d="M19.8,27.4v-.3s-.1,0-.1,.1-.1,.2-.1,.2h.2Z"/><path d="M19.4,27.3c0,.1,.1,.1,0,0,.1,0,.2-.1,.2-.2v-.1s0-.1-.1,0c0,0,0,.1-.1,.2v.1Z"/><path d="M19.4,27.1q0-.1,0,0,0-.1,0,0t-.1,.1c0,.1,.1,.1,.1,.1v-.2Z"/><path d="M19.3,27q0-.1,0,0h-.1v.1l.1-.1h0Z"/><path d="M19.2,26.9s0-.1,0,0v-.1s-.1,0-.1,.1c-.1,0,0,.1,.1,0-.1,.1,0,.1,0,0Z"/></svg>