<?xml version="1.0" encoding="UTF-8"?><svg id="a" xmlns="http://www.w3.org/2000/svg" viewBox="0 0 48.05 41.6"><path d="M46.77,31.8L29.87,3.7c-1.4-2.4-3.5-3.7-5.8-3.7s-4.4,1.4-5.8,3.7L1.27,31.8c-1.4,2.4-1.7,4.9-.6,6.8,1.1,1.9,3.3,3,6.1,3H41.17c2.8,0,5-1.1,6.1-3,1.2-2,1-4.4-.5-6.8Zm-5.5,7.6H6.87c-4.1,0-5.8-2.9-3.6-6.4L20.17,4.8c2.1-3.5,5.6-3.5,7.8,0l17,28.1c2,3.5,.4,6.5-3.7,6.5Z"/><path d="M27.17,34.9c-.3-.2-.5-.9-.2-1.6,.3-.6,1-1,1.3-.9,0,0,.3,.1,.4-.2s0-.9,0-1.1c0,0,0-.3-.4-.2-.3,.1-1-.3-1.3-.9-.3-.7,0-1.4,.3-1.6,0,0,.3-.2,.1-.4l-.8-.8s-.2-.2-.4,.1-.9,.5-1.6,.2c-.6-.3-1-1-.9-1.3,0,0,.1-.3-.2-.4-.3-.1-.9,0-1.1,0,0,0-.3,0-.2,.4,.1,.3-.3,1-.9,1.3-.7,.3-1.4,0-1.6-.3,0,0-.2-.3-.4-.1l-.8,.8s-.2,.2,.1,.4,.5,.9,.2,1.6c-.3,.6-1,1-1.3,.9,0,0-.3-.1-.4,.2-.1,.3,0,.9,0,1.1,0,0,0,.3,.4,.2,.3-.1,1,.3,1.3,.9,.3,.7,0,1.4-.3,1.6,0,0-.3,.2-.1,.4l.8,.8s.2,.2,.4-.1c.2-.3,.9-.5,1.6-.2,.6,.3,1,1,.9,1.3,0,0-.1,.3,.2,.4h1.1s.3,0,.2-.4c-.1-.3,.3-1,.9-1.3,.7-.3,1.4,0,1.6,.3,0,0,.2,.3,.4,.1l.8-.8s.2-.3-.1-.4Zm-1.6-2.2c-.6,1.5-2.4,2.2-3.9,1.6s-2.2-2.4-1.6-3.9,2.4-2.2,3.9-1.6,2.2,2.4,1.6,3.9Z"/><path d="M34.57,22.4c-.2,0-.6-.4-.7-.9,0-.5,.3-1,.6-1,0,0,.2-.1,.2-.3-.1-.2-.3-.6-.4-.7,0,0-.1-.2-.3,0s-.8,.2-1.1-.2c-.4-.3-.5-.9-.3-1.1,0,0,.1-.2-.1-.3s-.6-.2-.8-.3c0,0-.2,0-.2,.2s-.4,.6-.9,.7c-.5,0-1-.3-1-.6,0,0-.1-.2-.3-.2-.2,.1-.6,.3-.7,.4,0,0-.2,.1,0,.3,.2,.2,.2,.8-.2,1.1-.3,.4-.9,.5-1.1,.3,0,0-.2-.1-.3,.1-.1,.2-.2,.6-.3,.8,0,0,0,.2,.2,.2s.6,.4,.7,.9c0,.5-.3,1-.6,1,0,0-.2,.1-.2,.3,.1,.2,.3,.6,.4,.7,0,0,.1,.2,.3,0,.2-.2,.8-.2,1.1,.2,.4,.3,.5,.9,.3,1.1,0,0-.1,.2,.1,.3,.2,.1,.6,.2,.8,.3,0,0,.2,0,.2-.2s.4-.6,.9-.7c.5,0,1,.3,1,.6,0,0,.1,.2,.3,.2,.2-.1,.6-.3,.7-.4,0,0,.2-.1,0-.3-.2-.2-.2-.8,.2-1.1,.4-.3,.9-.5,1.1-.3,0,0,.2,.1,.3-.1s.2-.6,.3-.8c0,.1,.1-.2-.2-.2Zm-3.7,1.5c-1.2,.1-2.2-.8-2.3-2-.1-1.2,.8-2.2,2-2.3,1.2-.1,2.2,.8,2.3,2s-.8,2.2-2,2.3Z"/><path d="M30.97,34.1c0-.2,.1-.4,.2-.4,0,0,.1,0,.1-.1s-.1-.2-.2-.3c0,0,0-.1-.1,0s-.3,.1-.5-.1c-.2-.1-.2-.4-.1-.5v-.1c-.1,0-.2-.1-.3-.1,0,0-.1,0-.1,.1s-.2,.3-.4,.3-.4-.1-.4-.2c0,0,0-.1-.1-.1s-.2,.1-.3,.2c0,0-.1,0,0,.1s.1,.3-.1,.5c-.1,.2-.4,.2-.5,.1h-.1c0,.1-.1,.2-.1,.3,0,0,0,.1,.1,.1s.3,.2,.3,.4-.1,.4-.2,.4c0,0-.1,0-.1,.1s.1,.2,.2,.3c0,0,0,.1,.1,0s.3-.1,.5,.1c.2,.1,.2,.4,.1,.5v.1c.1,0,.2,.1,.3,.1,0,0,.1,0,.1-.1s.2-.3,.4-.3,.4,.1,.4,.2c0,0,0,.1,.1,.1s.2-.1,.3-.2c0,0,.1,0,0-.1s-.1-.3,.1-.5c.1-.2,.4-.2,.5-.1h.1v-.4c-.1,0-.3-.2-.3-.4Zm-1.3,1c-.5,0-.9-.3-1-.8,0-.5,.3-.9,.8-1,.5,0,.9,.3,1,.8s-.3,1-.8,1Z"/><path d="M31.27,34.5c0,.1,.1,0,0,0h0Z"/><path d="M23.27,20.9c1.49,0,2.7-1.21,2.7-2.7s-1.21-2.7-2.7-2.7-2.7,1.21-2.7,2.7,1.21,2.7,2.7,2.7Z"/><path d="M30.37,27.3l-.1-.1,.1-.1,.6,.4c.3,.2,.4-.1,.3-.2-.3-.2-1.7-1-1.7-1h-.3c-.3-.2-6.3-4.4-8.5-6.1-.5-.4-.6-.6-1.2-.7s-1,.1-1,.1l-5.8,3.5v6.3l8.1-6.1s6.7,3.7,7.4,4.1l.2,.6,1,.6,.1,.1,1.1,.6c.3,.2,.5-.1,.2-.3l-1-.5v-.1l1.5,.9c.3,.2,.5-.1,.2-.3l-1.5-.9v-.1l1.6,.9c.3,.2,.5-.1,.2-.3l-1.6-.9v-.1l1.5,.9c.3,.1,.5-.2,.2-.3l-1.6-.9Z"/></svg>