<?xml version="1.0" encoding="UTF-8"?><svg id="a" xmlns="http://www.w3.org/2000/svg" viewBox="0 0 48.08 41.6"><path d="M46.8,31.8L29.9,3.7c-1.4-2.4-3.5-3.7-5.8-3.7s-4.4,1.4-5.8,3.7L1.3,31.8c-1.5,2.4-1.7,4.9-.6,6.8,1.1,1.9,3.3,3,6.1,3H41.2c2.8,0,5-1.1,6.1-3,1.2-2,1-4.4-.5-6.8Zm-5.5,7.5H6.9c-4.1,0-5.8-2.9-3.6-6.4L20.2,4.8c2.1-3.5,5.6-3.5,7.8,0l16.9,28.1c2.1,3.5,.5,6.4-3.6,6.4Z"/><path d="M27.9,13.9c-1.1,.2-1.9,1.2-1.8,2.3s1.2,1.9,2.3,1.8c1.1-.2,1.9-1.2,1.8-2.3s-1.1-2-2.3-1.8Z"/><path d="M8.1,28.8c1-1.4,2.2-2.1,3.6-2,1.8,.2,3.5,1.8,4.6,4.3,.5,1.1,1.2,1.8,2.1,2.1,.3,.1,.7,.1,1,.1,.7,0,1.3-.2,1.8-.4,.1,.2,.5,.5,1.2,.4,.8-.1,1.1-.6,1.1-.6l-.8-5.6c.6,.2,1.2,.1,1.8-.1l.3,2.2,2.7,3.8s.6,.3,1.3-.2c.5-.4,.5-.7,.5-.9h0c1.2,.5,2.1,.7,2.9,.7,1.5,0,2.5-.7,3.8-1.6l-.2-.4c-2,1.4-3.2,2.1-6.3,.8-.2-.1-.5-.2-.6-.4l-1.1-1.6c-.2-.5-.4-1-.5-1.4s-.3-.8-.4-1.2l-.2-2.6,.1-.2c2,4,3.4,5.4,6.5,5.1,1.4-.2,2.2-.5,2.9-.7,.9-.3,1.4-.5,2.3-.2,.4,.2,.7,.4,1.1,.6,.6,.4,1.2,.8,1.9,.8,.3,0,.6-.1,.8-.2l-.2-.4c-.8,.4-1.5-.1-2.3-.6-.4-.2-.7-.5-1.2-.6-1.1-.4-1.7-.2-2.6,.1-.7,.2-1.5,.6-2.8,.7-2.6,.3-3.8-.4-6.2-5.1l1.5-2.7,3.1,.9,3.1-.6s.7-.3,.6-1.1c-.2-.8-.9-.8-.9-.8l-2.8,.4-2.4-.6-3-1.7-2.3-2-1.3-3.3s-.4-.6-1.1-.4c-.8,.2-.7,1.1-.7,1.1l1.3,4.1,2.4,2.1-.4,.6c-2.4-2.3-5.4-3.7-7.8-4-.6-.1-1.3-.1-1.9-.2l-.3,.4c.7,0,1.4,0,2.1,.2,2.4,.4,5.4,1.7,7.7,4l-1.3,2.4-1.9,2.4c-.1-.2-.2-.4-.4-.6-1.1-2.2-2.6-1.8-4.1-1.1-1.7,.8-2.7,1.1-4-1.5-.2-.4-.5-.8-.9-1.1l-.2,.4c.3,.2,.5,.5,.7,.9,1.5,2.9,2.8,2.5,4.6,1.7,1.7-.8,2.7-.9,3.5,.8,.1,.3,.3,.6,.5,.8l-.3,.4,1,6.8c-.7,.3-1.7,.5-2.6,.2-.8-.2-1.4-.9-1.8-1.9-1.1-2.6-3-4.3-4.9-4.5-1.5-.2-2.9,.6-4,2.2-.9,1.6-1.7,2.3-2.6,2.6l-.3,.5c1.1-.2,2.2-1,3.2-2.5Zm15.9-4l.3,1.8c-.5,.2-1.1,.2-1.6,.1q-.1,0-.2-.1v-.3l1.5-1.5Z"/><path d="M34.8,33.9l.3,.3s1.7-1.4,3.7-.6c1.4,.6,2.6,.9,3.8,.9,.8,0,1.6-.2,2.2-.5-.1-.1-.1-.3-.2-.4-1.5,.7-3.4,.5-5.6-.4-2.2-.9-4.1,.6-4.2,.7Z"/><polygon points="18.2 20.1 17.3 18.5 17.1 19.1 14.9 18.5 14.6 19.8 16.8 20.4 16.6 21.1 18.2 20.1"/><polygon points="9.7 32.1 12 32 12 32.6 13.3 31.2 11.8 29.9 11.8 30.6 9.6 30.8 9.7 32.1"/><path d="M42.6,35.3c-.8-.1,.2-.4-.9-.4s-.9-.3-1.4,0-1.2-.1-1.7-.1h-2.9c-.4,0-.8,.5-1.6,.5s-1.2-.1-1.2-.1l-.8-.4s0,.4-.8,.4-.9-.8-1.2-.4c-.3,.4-.2,.6-.7,.5-.4-.1-1,.4-1.9,.2s.3-.1-1.2-.2-1.9-.6-2.2-.6-.1,.2-1.2,.3c-1,.1-.5-.3-1.4-.3s.3-.7-1.4,0-1.7,.7-2.5,.7c-.9,0-.1,.2-1.7-.1-1.6-.3-1.8-.9-2.2-.6-.4,.4-2.9,.4-3.2,.4-.3-.1-1.3-.7-1.3-.7,0,0-1-.3-1.2,0s-1.4,.4-2.2,.4-.7-.2-1-.2-.9-.1-1.7,.2c-.2,.9-.2,1.7,.2,2.4,.5,1,1.8,1.6,3.6,1.6H41.3c1.8,0,3.1-.6,3.7-1.6,.3-.6,.4-1.3,.2-2.1-1,.1-2.2,.2-2.6,.2Z"/><path d="M20.5,8.6c.6,0,.5,0,1.7,.7,1.1,.7,.4,0,.9,0,.6,0,.2-.4,.9-.3,.7,.1,.6,.3,.7,.3,.2,0,.4-.5,1.4-.6s.2,0,.8-.2c.6-.2,.9,.3,1.2,.2,.3-.1,.2,.1,.4,.5,.2,.4,.3-.4,.7-.4,.2,0,.3,0,.4,.1l-2.2-3.7c-.9-1.5-2.1-2.4-3.4-2.4s-2.5,.8-3.4,2.4l-2.5,4.2c.2-.1,.5-.5,1.2-.7,1.1-.3,.6-.1,1.2-.1Z"/></svg>