<?xml version="1.0" encoding="UTF-8"?><svg id="a" xmlns="http://www.w3.org/2000/svg" viewBox="0 0 48 41.6"><path d="M46.7,31.8L29.8,3.7c-1.4-2.4-3.5-3.7-5.8-3.7s-4.4,1.4-5.8,3.7L1.3,31.8c-1.5,2.4-1.7,4.9-.6,6.8,1.1,1.9,3.3,3,6.1,3H41.2c2.8,0,5-1.1,6.1-3s.9-4.4-.6-6.8Zm-5.5,7.6H6.8c-4.1,0-5.8-2.9-3.6-6.4L20.2,4.9c2.1-3.5,5.6-3.5,7.8,0l17,28.1c2,3.5,.3,6.4-3.8,6.4Z"/><path d="M23.8,34.3h-3.2c-.1-.2-.3-.4-.3-.4l-1.6-1.2-1.1-2.3v-.1c-.1-.2-.3-.2-.6-.2,0,0-1.2,0-1.2,1.4s.1,3.2,.1,3.2c0,0-.3,1,1.4,1h6.5s.7-.1,.7-.7-.7-.7-.7-.7Zm-6.3,0s-.1-.8-.1-1.6l.4,.9,1.1,.7h-1.4Z"/><path d="M18.2,30.4c.6,0,1.1-.5,1.1-1.1s-.5-1.1-1.1-1.1-1.1,.5-1.1,1.1,.5,1.1,1.1,1.1Z"/><path d="M29.9,17.9v-1.9c0-.5-.4-1-1-1h-.3c-.5,0-1,.4-1,1v1.9h-1v-1.9c0-.5-.4-1-1-1h-.3c-.5,0-1,.4-1,1v1.9H14.2l-.6,.6v18.6l.6,.6h11.5v1.4h.8v-1.4h2.6v1.4h.8v-1.4h2.7l.6-.6V18.5l-.6-.6h-2.7Zm-15.1,18.6V19h10.9v17.5H14.8Zm11-18.6h-.7v-1.9c0-.1,.1-.2,.2-.2h.3c.1,0,.2,.1,.2,.2v1.9Zm3.4,18.6h-2.6v-1.9h2.6v1.9Zm0-2.7h-2.6v-1.8h2.6v1.8Zm0-2.6h-2.6v-1.8h2.6v1.8Zm0-2.6h-2.6v-1.8h2.6v1.8Zm0-2.5h-2.6v-1.8h2.6v1.8Zm0-2.6h-2.6v-1.8h2.6v1.8Zm0-2.5h-2.6v-1.9h2.6v1.9Zm0-3.1h-.8v-1.9c0-.1,.1-.2,.2-.2h.4c.1,0,.2,.1,.2,.2v1.9Zm2.9,18.6h-2.1V19h2.1v17.5Z"/></svg>