<?xml version="1.0" encoding="UTF-8"?><svg id="a" xmlns="http://www.w3.org/2000/svg" viewBox="0 0 48.08 41.6"><path d="M46.8,31.8L29.9,3.7c-1.4-2.4-3.5-3.7-5.8-3.7s-4.4,1.4-5.8,3.7L1.3,31.8c-1.5,2.4-1.7,4.9-.6,6.8,1.1,1.9,3.3,3,6.1,3H41.2c2.8,0,5-1.1,6.1-3,1.2-2,1-4.4-.5-6.8Zm-5.5,7.5H6.9c-4.1,0-5.8-2.9-3.6-6.4L20.2,4.8c2.1-3.5,5.6-3.5,7.8,0l16.9,28.1c2.1,3.5,.5,6.4-3.6,6.4Z"/><path d="M30.1,19c-1.16,0-2.1,.94-2.1,2.1s.94,2.1,2.1,2.1,2.1-.94,2.1-2.1-.94-2.1-2.1-2.1Z"/><path d="M26.5,22.2c-.4-.5-.9-.7-1.4-.7h-6.2c-.7,0-1.2,.4-1.2,1v.1c0,.5,.5,1,1.2,1h4.9l-7.5,7.2c-.6,.6-.1,1.2,.3,1.8l2,3.4c.3,.5,1.1,.7,1.5,.4,.5-.3,.7-1.1,.4-1.6l-1.8-3,2.8-2.6v5.9c0,.5,.4,.9,.6,1l3.3,2.3c.5,.4,1.3,.2,1.6-.3,.3-.4,.2-1.3-.3-1.6l-2.9-2v-4.3l3.1-2.8v4.3c0,.5,.4,1,1,1h.1c.5,0,1-.4,1-1v-5.9c0-.3-.1-.7-.3-.9-.1-.3-1.6-2-2.2-2.7Z"/><path d="M22.8,16.6l1.3,2.9,.9-1.6,1.8,3-1.7-5.9s-.8,1.6-.8,1.7-1.1-3.7-1.1-3.7l-.8,1.5-1.3-4.1-1.7,2.8,2.5,4.8,.9-1.4Z"/></svg>