<?xml version="1.0" encoding="UTF-8"?><svg id="a" xmlns="http://www.w3.org/2000/svg" viewBox="0 0 48.08 41.6"><path d="M46.8,31.8L29.9,3.7c-1.4-2.4-3.5-3.7-5.8-3.7s-4.4,1.4-5.8,3.7L1.3,31.8c-1.5,2.4-1.7,4.9-.6,6.8,1.1,1.9,3.3,3,6.1,3H41.2c2.8,0,5-1.1,6.1-3,1.2-2,1-4.4-.5-6.8Zm-5.5,7.5H6.9c-4.1,0-5.8-2.9-3.6-6.4L20.2,4.8c2.1-3.5,5.6-3.5,7.8,0l16.9,28.1c2.1,3.5,.5,6.4-3.6,6.4Z"/><polygon points="23.4 31.1 26.2 29.9 23.1 29.1 28.5 24.1 22.1 26.4 22.1 22.7 19.2 28.2 22.8 27.2 20.5 29.8 22.6 30.1 21.4 31.9 23.6 33 21.7 33.7 23 34.6 20.4 34.6 24.2 38.8 23 35.6 25.2 36.1 23.9 34 30.5 33.2 23.4 31.1"/><path d="M21.9,21.8l2.2,3.3,3.8-1.1-.1-.3,2.9-.8,1.9-2.8s.4-.7-.1-1-.9,.1-.9,.1l-1.8,2.3-2.6,.8-2.6,.7-1.2-1.8-.9-3.9s-.2-.7-.8-.6c-.6,.2-.6,.9-.6,.9l.8,4.2Z"/><path d="M37.4,26.9s-1.4-.9-2.4-1.3c-1.1-.4-1.6-.1-1.6-.1l-3.6,1.5-1.4-2.1-2.9,2.9,1.7,2,4,2s2.3,3.2,2.7,3.7c.4,.5,.8,.8,1.4,.5,.6-.4,.1-1.3,.1-1.3,0,0-2.1-2.9-2.7-3.8-.6-.9-1-1-1-1l-1.6-1.2,3.7-1.6,2.5,1.1s1.2,.7,1.6-.1c.3-.8-.5-1.2-.5-1.2Z"/><path d="M25.5,22c.9,0,1.6-.7,1.6-1.6s-.7-1.6-1.6-1.6-1.6,.7-1.6,1.6c.1,.9,.8,1.6,1.6,1.6Z"/><path d="M9.2,29.8c-2.1,0-3.9,1.8-3.9,4s1.8,3.9,3.9,3.9,3.9-1.8,3.9-3.9c.1-2.2-1.7-4-3.9-4Zm0,6.2c-1.3,0-2.3-1-2.3-2.3s1-2.3,2.3-2.3,2.3,1,2.3,2.3c0,1.3-1,2.3-2.3,2.3Z"/><path d="M8.2,32.7c-.1,.1-.1,.2,0,.3s.2,.1,.3,0,.1-.2,0-.3h-.3Z"/><path d="M10.2,33c.1-.1,.1-.2,0-.3s-.2-.1-.3,0-.1,.2,0,.3c.1,.1,.2,.1,.3,0Z"/><path d="M8.2,34.4c-.1,.1-.1,.2,0,.3s.2,.1,.3,0,.1-.2,0-.3-.2-.1-.3,0Z"/><path d="M9.9,34.4c-.1,.1-.1,.2,0,.3s.2,.1,.3,0,.1-.2,0-.3-.2-.1-.3,0Z"/><path d="M8,33.5c-.1,0-.2,.1-.2,.2s.1,.2,.2,.2,.2-.1,.2-.2-.1-.2-.2-.2Z"/><path d="M9.2,32.3c-.1,0-.2,.1-.2,.2s.1,.2,.2,.2,.2-.1,.2-.2-.1-.2-.2-.2Z"/><path d="M9.2,34.7c-.1,0-.2,.1-.2,.2s.1,.2,.2,.2,.2-.1,.2-.2-.1-.2-.2-.2Z"/><path d="M10.4,33.5c-.1,0-.2,.1-.2,.2s.1,.2,.2,.2,.2-.1,.2-.2-.1-.2-.2-.2Z"/><path d="M18.3,23.4h0l-4-7.3-.4,.7,3.4,6.3h-7.2l-3.2,5.3h4.5s3.8,1.2,3.8,5.6h4.4v-3.9l-1.3-.7v-6Z"/></svg>