<?xml version="1.0" encoding="UTF-8"?><svg id="a" xmlns="http://www.w3.org/2000/svg" viewBox="0 0 48.08 41.6"><path d="M46.8,31.8L29.9,3.7c-1.4-2.4-3.5-3.7-5.8-3.7s-4.4,1.4-5.8,3.7L1.3,31.8c-1.5,2.4-1.7,4.9-.6,6.8,1.1,1.9,3.3,3,6.1,3H41.2c2.8,0,5-1.1,6.1-3,1.2-2,1-4.4-.5-6.8Zm-5.5,7.5H6.9c-4.1,0-5.8-2.9-3.6-6.4L20.2,4.8c2.1-3.5,5.6-3.5,7.8,0l16.9,28.1c2.1,3.5,.5,6.4-3.6,6.4Z"/><polygon points="30.4 10 30.4 22.4 37.9 22.4 30.4 10"/><polygon points="18 9.5 10.3 22.4 18 22.4 18 9.5"/><path d="M33,29.9c0,.3,.3,.6,.6,.6s.6-.3,.6-.6-.3-.6-.6-.6-.6,.3-.6,.6Z"/><path d="M42.9,35.9c-1-.1,.3-.6-1.1-.6s-1.1-.4-1.8,0-1.6-.2-2.2-.2h-3.7c-.2,0-.5,.1-.7,.2l-.5-.9,1-2.9,.3,.8c0,.1,.1,.1,0,.1,0,0-.1,0-.1,.1-.2,.2-.7,.5-.7,.6s-.1,.3,.2,.4c.3,.1,.4-.2,.4-.2,0,0,.4-.4,.7-.6,.1-.1-.1-.6-.1-.6l-.4-1.1s-.1-.2-.3-.3l-.9-.3-.7-.6,.4-.9s.1-.3,0-.4c-.2-.2-.4,.1-.4,.1l-.5,1.1h0c0,.1,.1,.2,.1,.2l.9,.8-.2,.7-.5,.1-.4,1.1,.3,.1h0v.1h0c-.2,.2-.5,.4-.8,.6-.5,.4-.5,.7-.5,.7,0,0-.2,.7-.3,.9-.1,.2-.1,.5,.1,.6h-.3v3.2h11c1.8,0,3.1-.6,3.7-1.6,.2-.4,.4-.9,.3-1.5-.9,.1-1.9,.2-2.3,.2Zm-10.9-.1c-.7,0-1.1,0-1.3-.1,.2,0,.3-.2,.3-.2,0,0,.2-.8,.3-1.1,.1-.3,.3-.4,.3-.4l.6-.4h.1c0,.3-.1,.7-.1,.8,0,.2,.1,.5,.1,.5,0,0,.3,.5,.5,.8-.3,0-.5,.1-.8,.1Z"/><path d="M16.1,35.2c-1.1,0-.4-.7-2.7,.2-2.2,.9-1.4,.5-2.5,.5s-.1,.3-2.2-.1c-2-.4-2.3-1.2-2.9-.7-.4,.3-1.9,.5-2.9,.5-.1,.6,0,1.2,.3,1.7,.6,.9,1.9,1.5,3.7,1.5h11.3v-3.4h-.3c-1.4,.1-.7-.2-1.8-.2Z"/><path d="M24.1,4.8l.2-.1c.1,0,.1-.1,.1-.1h0c0-.1-.1,0-.1,0h-.2c-.1,0-.1,.1,0,.2h0c-.1,0,0,0,0,0Z"/><path d="M24.1,3.2h.2c.1,0,.1-.1,.1-.1h0c0-.1-.1,0-.1,0h-.2q-.1,0,0,.1h0c-.1,0,0,0,0,0Z"/><path d="M24.1,4.6l.2-.1c.1,0,.1-.1,.1-.1h0c0-.1-.1,0-.1,0h-.2c-.1,0-.1,.1,0,.2h0c-.1,0,0,0,0,0Z"/><path d="M24.1,5.5l.2-.1c.1,0,.1-.1,.1-.1h0c0-.1-.1,0-.1,0h-.2c-.1,0-.1,.1,0,.2h0c-.1,0,0,0,0,0Z"/><path d="M24.1,3h.2c.1,0,.1-.1,.1-.1h0c0-.1-.1,0-.1,0h-.2q-.1,0,0,.1h0c-.1,0,0,0,0,0Z"/><path d="M24.1,5l.2-.1c.1,0,.1-.1,.1-.1h0c0-.1-.1,0-.1,0h-.2q-.1,.1,0,.2h0c-.1,0,0,0,0,0Z"/><path d="M24.1,5.2l.2-.1c.1,0,.1-.1,.1-.1h0c0-.1-.1,0-.1,0l-.2,.1c-.1,0-.1,.1,0,.1h0c-.1,.1,0,0,0,0Z"/><path d="M24.1,3.4h.2c.1,0,.1-.1,.1-.1h0c0-.1-.1,0-.1,0h-.2c-.1-.1-.1,0,0,.1h0c-.1,0,0,0,0,0Z"/><path d="M24.1,4h.2c.1,0,.1-.1,.1-.1h0c0-.1-.1,0-.1,0l-.2-.1c-.1,0-.1,.1,0,.2h0c-.1,0,0,0,0,0Z"/><path d="M24.1,4.1h.2c.1,0,.1-.1,.1-.1h0c0-.1-.1,0-.1,0h-.2c-.1,0-.1,.1,0,.1h0c-.1,.1,0,0,0,0Z"/><path d="M24.1,4.3h.2c.1,0,.1-.1,.1-.1h0c0-.1-.1,0-.1,0h-.2q-.1,0,0,.1h0c-.1,.1,0,0,0,0Z"/><path d="M24.1,5.7l.2-.1c.1,0,.1-.1,.1-.1h0c0-.1-.1,0-.1,0h-.2c-.1,0-.1,.1,0,.2h0c-.1,0,0,0,0,0Z"/><path d="M24.1,3.6h.2c.1,0,.1-.1,.1-.1h0c0-.1-.1,0-.1,0h-.2c-.1-.1-.1,0,0,.1h0c-.1,0,0,0,0,0Z"/><path d="M24.1,3.8h.2c.1,0,.1-.1,.1-.1h0c0-.1-.1,0-.1,0h-.2c-.1-.1-.1,0,0,.1h0c-.1,0,0,0,0,0Z"/><path d="M24.1,2.8h.2q-.1-.1-.2,0,0-.1,0,0h0c-.1,.1,0,0,0,0Z"/><path d="M24.1,6.6l.2-.1c.1,0,.1-.1,.1-.1h0c0-.1-.1,0-.1,0h-.2c-.1,0-.1,.1,0,.2h0c-.1,0,0,0,0,0Z"/><path d="M24.1,7l.2-.1c.1,0,.1-.1,.1-.1h0c0-.1-.1,0-.1,0h-.2c-.1,0-.1,.1,0,.2h0c-.1,0,0,0,0,0Z"/><path d="M24.1,6.8l.2-.1c.1,0,.1-.1,.1-.1h0c0-.1-.1,0-.1,0h-.2c-.1,0-.1,.1,0,.2h0c-.1,0,0,0,0,0Z"/><path d="M24.1,5.9l.2-.1c.1,0,.1-.1,.1-.1h0c0-.1-.1,0-.1,0h-.2c-.1,0-.1,.1,0,.2h0c-.1,0,0,0,0,0Z"/><path d="M24.1,6.3l.2-.1c.1,0,.1-.1,.1-.1h0c0-.1-.1,0-.1,0l-.2,.1q-.1,0,0,.1h0c-.1,.1,0,0,0,0Z"/><path d="M24.1,6.1l.2-.1c.1,0,.1-.1,.1-.1h0c0-.1-.1,0-.1,0h-.2q-.1,.1,0,.2h0c-.1,0,0,0,0,0Z"/><polygon points="20.6 30.5 27.8 30.5 28 29.8 20.4 29.8 20.6 30.5"/><path d="M20.4,29.4h7.6v-10.3h-7.6v10.3Zm6.2-8.8h.5v.8h-.5v-.8Zm0,3.1h.5v.8h-.5v-.8Zm0,3.1h.5v.8h-.5v-.8Z"/><path d="M27.8,18.2h-3.5v-.5c.1,0,.1-.2,.1-.2v-.3c0-.1-.1-.2-.1-.2v-.2c.1,0,.1-.2,.1-.2v-.3c0-.1-.1-.2-.1-.2v-.2c.1,0,.1-.2,.1-.2v-.3c0-.1-.1-.2-.1-.2v-.2c.1,0,.1-.2,.1-.2h0c0-.1-.1-.2-.1-.2v-.2c.1,0,.1-.2,.1-.2v-.3c0-.1-.1-.2-.1-.2v-.2c.1,0,.1-.2,.1-.2v-.3c0-.1-.1-.2-.1-.2v-.4s.1,0,.3-.1l.1,.2c-.1,.1,0,.2,0,.2l.1,.2c0,.1,.2,.1,.2,.1l.1,.2c-.1,.1,0,.2,0,.2l.1,.2c0,.1,.2,.1,.2,.1l.1,.2c-.1,.1,0,.2,0,.2l.1,.2c.1,.1,.2,.1,.2,.1l.1,.2c-.1,.1,0,.2,0,.2l.1,.2c.1,.1,.2,.1,.2,.1l.1,.2c-.1,.1,0,.2,0,.2l.1,.2c0,.1,.2,.1,.2,.1l.1,.2c-.1,.1,0,.2,0,.2l.1,.2c0,.1,.2,.1,.2,.1l.1,.1s-.1,.1-.1,.2v.7h.4s.2,0,.2-.2v-.7h-.4l-.1-.1c.1-.1,0-.2,0-.2l-.1-.2c-.1-.1-.2-.1-.2-.1l-.1-.2c.1-.1,0-.2,0-.2l-.4,.2c-.1-.1-.2-.1-.2-.1l-.1-.2c.1-.1,0-.2,0-.2l-.1-.2c-.1-.1-.2-.1-.2-.1v-.2c.1-.1,0-.2,0-.2l-.1-.2c0-.1-.2-.1-.2-.1l-.1-.2c.1-.1,0-.2,0-.2l-.1-.2c-.1-.1-.2-.1-.2-.1l-.1-.2c.1-.1,0-.2,0-.2v-.4c-.1-.1-.2-.1-.2-.1l-.1-.2c.1-.1,.3-.3,.3-.6v-.9c.4-.2,.4-.7,.4-.9s-.1-.8-.8-1c0,0-.1-.1,0-.1h.3l-.2-1.8h-.2c0-.1-.1,0-.1,0l-.2-.1c-.1,0-.1,.1-.1,.1h-.3l-.2,1.8h.3v.1s0,.4,.4,.5,.3,.5,.3,.5c0,0,0,.1-.1,.2-.1-.1-.2-.1-.3-.1h-.4c-.1-.1-.1-.2-.1-.3-.1-.2-.3-.4-.5-.3-.1,.1,.1,.3,.1,.5,0,.1,0,.4,.2,.6v.1l.1,.1h0v1s0,.4,.3,.6l-.1,.2c-.1,0-.2,0-.2,.1l-.1,.2s-.1,.1,0,.2l-.1,.2c-.1,0-.2,0-.2,.1l-.1,.3s-.1,.1,0,.2l-.1,.2c-.1,0-.2,0-.2,.1l-.1,.2s-.1,.1,0,.2l-.1,.2c-.1,0-.2,0-.2,.1l-.1,.2s-.1,.1,0,.2l.1,.4c-.1,0-.2,0-.2,.1l-.1,.2s-.1,.1,0,.2l-.1,.2c-.1,0-.2,0-.2,.1l-.1,.2s-.1,.1,0,.2l-.1,.1h-.4v.7c0,.2,.2,.2,.2,.2h.4v-.7c0-.1,0-.2-.1-.2l.1-.1c.1,0,.2,0,.2-.1l.1-.2s.1-.1,0-.2l.1-.2c.1,0,.2,0,.2-.1l.1-.2s.1-.1,0-.2l.1-.2c.1,0,.2,0,.2-.1l.1-.2s.1-.1,0-.2l.1-.2c.1,0,.2,0,.2-.1l.1-.2s.1-.1,0-.2l.1-.2c.1,0,.2,0,.2-.1l.1-.2s.1-.1,0-.2l.1-.2c.1,0,.2,0,.2-.1l.1-.2s.1-.1,0-.2l.1-.2h.2v.4c-.1,0-.1,.2-.1,.2v.3c0,.1,.1,.2,.1,.2v-.1c-.1,0-.1,.2-.1,.2v.3c0,.1,.1,.2,.1,.2v.2c-.1,0-.1,.2-.1,.2v.3c0,.1,.1,.2,.1,.2v.2c-.1,0-.1,.2-.1,.2v.3c0,.1,.1,.2,.1,.2v.2c-.1,0-.1,.2-.1,.2v.3c-.2-.2-.1-.2-.1-.2v.2c-.1,0-.1,.2-.1,.2v.3c0,.1,.1,.1,.1,.2v.5h-3.5l-.2,.6h7.6l-.2-.6Zm-3.5-1.1s.1,0,.1,.1v.3l-.1-.4h0Zm2.5,.3v.1h.1v-.1h0c.1,0,.2,.1,.2,.2s-.1,.2-.2,.2-.2-.1-.2-.2c0-.2,.1-.2,.1-.2Zm-.4-.8h.2l.1,.2v.1l-.1-.1h-.1v.1s-.1,0-.1-.1h0v-.2Zm-.3-.7h.2v-.1s.1,0,.1,.1l.1,.2v.1l-.1-.1h-.1v.1s-.1,0-.1-.1l-.1-.2c-.1,.1-.1,0,0,0Zm-.4-.8h.2v-.1s.1,0,.1,.1l.1,.2v.1l-.1-.1h-.1v.1s-.1,0-.1-.1l-.1-.2c0,.1-.1,.1,0,0Zm-.4-.8h.2v-.1s.1,0,.1,.1l.1,.2v.1l-.1-.1h-.1v.1s-.1,0-.1-.1l-.1-.2c0,.2,0,.1,0,0Zm-.3-.7h.2v-.1s.1,0,.1,.1l.1,.2v.1l-.2-.1h-.1v.1s-.1,0-.1-.1l-.1-.2c.1,.1,0,0,.1,0Zm-.8-5.6c-.1,0-.2-.1-.2-.2s.1-.2,.2-.2,.2,.1,.2,.2c0,.1-.1,.2-.2,.2Zm-2.7,9.6c-.1,0-.2-.1-.2-.2s.1-.1,.2-.1h0v.1h.1v0c0,.1-.1,.2-.1,.2Zm.4-.9l-.1,.2c0,.1-.1,.1-.1,.1v-.1h-.1l-.1,.1v-.1l.1-.2c0-.1,.1-.1,.1-.1v.1h.2v-.1c.1,.1,0,.1,0,.1Zm.4-.7l-.1,.2c0,.1-.1,.1-.1,.1v-.1h-.1l-.1,.1v-.1l.1-.2c0-.1,.1-.1,.1-.1v.1h.2v0Zm.4-.8l-.1,.2c0,.1-.1,.1-.1,.1v-.1h-.1l-.1,.1v-.1l.1-.2c0-.1,.1-.1,.1-.1v.1h.2v0Zm.3-.7l-.1,.2c0,.1-.1,.1-.1,.1v-.1h-.1l-.1,.1v-.1l.1-.2c0-.1,.1-.1,.1-.1v.1h.2v-.1c.1,0,0,.1,0,.1Zm.4-.8l-.1,.2c0,.1-.1,.1-.1,.1v-.1l-.1-.1v0l.1-.2c0-.1,.1-.1,.1-.1v.1l.1,.1v0Zm.4-.8l-.1,.2c0,.1-.1,.1-.1,.1v-.1h-.1l-.1,.1v-.1l.1-.2c0-.1,.1-.1,.1-.1v.1h.2v0Zm.9,0h.1v-.1s.1,0,.1,.1l.1,.2v.1l-.1-.1h-.1v.1s-.1,0-.1-.1v-.2c-.1,0-.2,0,0,0h0Zm-.5-2.4h0Zm-.3,1.8h0c-.3-.1-.3-.4-.3-.4v-.8h0c0-.3,.2-.4,.3-.5-.1,0-.3,.2-.3,.4,.1,.1,.3,.1,.5,.1s.3,0,.4-.1v.8c0,.5-.4,.5-.4,.5h-.2Zm.2,1.1h0c0,.1,0,0,0,0v-.2s0-.1,.1-.1v.1h.1v-.1s.1,0,.1,.1v.2s0,.1-.1,.1v-.1h-.2Zm0,.8v-.2s0-.1,.1-.1v.1h.1v-.1s.1,0,.1,.1v.2s0,.1-.1,.1v-.1h-.2l.1,.1c-.1,0-.1-.1-.1-.1Zm0,.8v-.2s0-.1,.1-.1v.1h.1v-.1s.1,0,.1,.1v.2s0,.1-.1,.1v-.1h-.2l.1,.1c-.1,0-.1-.1-.1-.1Zm0,.8v-.2s0-.1,.1-.1v.1h.1v-.1s.1,0,.1,.1v.2s0,.1-.1,.1v-.1h-.2l.1,.1q-.1,0-.1-.1Zm0,.8v-.2s0-.1,.1-.1v.1h.1v-.1s.1,0,.1,.1v.2s0,.1-.1,.1v-.1h-.2l.1,.1q-.1,0-.1-.1Zm0,.8v-.2s0-.1,.1-.1v.1h0l-.1,.2q0,.1,0,0Z"/></svg>