<?xml version="1.0" encoding="UTF-8"?><svg id="a" xmlns="http://www.w3.org/2000/svg" viewBox="0 0 48 41.6"><path d="M46.7,31.8L29.8,3.7c-1.4-2.4-3.5-3.7-5.8-3.7s-4.4,1.4-5.8,3.7L1.3,31.8c-1.5,2.4-1.7,4.9-.6,6.8,1.1,1.9,3.3,3,6.1,3H41.2c2.8,0,5-1.1,6.1-3s.9-4.4-.6-6.8Zm-5.5,7.6H6.8c-4.1,0-5.8-2.9-3.6-6.4L20.2,4.9c2.1-3.5,5.6-3.5,7.8,0l17,28.1c2,3.5,.3,6.4-3.8,6.4Z"/><path d="M17,33.4h-1.1v-.4h-.2s.7-.9,.7-1.2-.3-.2-.4-.2c-.2,0-.6-.4-.8-.5s-.4-.3-.4-.4c-.1-.1-.2,0-.4,0s-.8,.3-.8,0,.3-.3,.4-.5c.1-.2-.1-1-.2-1.2-.1-.1-1.2,.1-1.3-.2-1,.6-1.7,1.8-1.7,3.1,0,2,1.6,3.7,3.7,3.7,1.2,0,2.2-.6,2.9-1.4l-.4-.4v-.4Z"/><path d="M17.6,35.1s-.3,.3-.1,.4c.2,.1,.4,.1,.6,.3,.3,.2,.2,.3,.5,.3s.4-.3,.3-.5-.7-.4-1.3-.5Z"/><path d="M17,32.3h.6c.1,0,.9,.2,1.3,0s.1-.4-.1-.5-.2-.4-.1-.6,.3-.4,.2-.7c-.1-.2-.6,0-1,0s-.6,.1-.6,.3-.2,.7-.4,.9-.3,.4-.2,.6c.1,.1,.3,0,.3,0Z"/><path d="M17,29.7c-.1-.2-.4-.2-.6-.3-.2-.1-.1-.2-.5-.2s-.6-.1-.9,0c-.3,.1-.2,.2-.5,.4s.2,.5,.3,.5,.5,.1,.5,.2c.1,.1,.4,.3,.4,.3,0,0,.5-.2,.7-.4,.4-.1,.7-.3,.6-.5Z"/><path d="M12.6,27.8c0,.1,.1,.4,.2,.4,.1,.1,.4,0,.4,0,0,0,0-.3-.1-.4-.2-.1-.5,0-.5,0Z"/><path d="M11.6,28.3c-.3,0,0,.3,0,.4s.3,.1,.4,.1,.2-.3,.2-.3c.2-.1,.1-.4,0-.4-.1,.1-.3,.2-.6,.2Z"/><path d="M21.7,29.1c.3,.1,.4,.1,.6,.1s.4-.2,.2-.3c-.2-.1-.6-.3-1-.4s-.3,.1-.6,.2c-.3,.1,.1,.1,.1,.1,0,0,.5,.2,.7,.3Z"/><path d="M22.7,33.1c.1,0,0-.4-.2-.6s-.4-.2-.6-.2-.1,.1-.1,.2,.4,.6,.4,.6h.5Z"/><path d="M25.5,34.2c.2,0,.5-.1,.4-.4,0-.3-.7-.2-.8-.3-.2,0-.4,0-.5,.2s.3,.4,.3,.4c0,0,.4,.1,.6,.1Z"/><path d="M29.1,34.4c.6,0,.9-.2,1-.4s-.2-.1-.7-.5c-.5-.3-.9-.3-1.6-.3-.7-.1-.8,.2-.8,.2,0,0,.1,.5,.2,.7l.4,.1s.9,.2,1.5,.2Z"/><path d="M15.6,16.8c.2-.1,.2-.5,.2-.5,0,0,.2-.9,.2-1.5s-.2-.9-.4-1h-.1l-.1,.2c0,.1-.1,.3-.2,.5-.3,.5-.3,1-.3,1.6-.3,.7,0,.9,0,.9,0,0,.5-.2,.7-.2Z"/><path d="M29.2,36.5c-.4-.1-.8-.3-1.2-.3h-.6c-.3,0-.2,.2-.2,.4,0,.1,.4,.3,.5,.4s.6,.4,.6,.4l3.1,1.4,.3,.1h2.9c-.9-.4-2-.9-2.3-1.1-.8-.6-2.7-1.2-3.1-1.3Z"/><path d="M18.3,33.7c-.2,.5-.6,.4-.6,.4l7.5,4.8h3.8l-5.7-2.6c0-.1-.1-.2,.1-.3,.3-.2,.6-.2,.4-.4s-.6-.4-.7-.3c-.1,.1-.4,.4-.5,.4s-.2,0-.2,.2l-2.1-.9s.4-.1,.3-.5c0-.2-.1-.3-.2-.4l19.4,4.7h1.4c1,0,1.8-.2,2.5-.5l-25.2-5.2s0,.1-.2,.6Z"/><path d="M44,32.6l-24.4-1.4,25.4,3.6c-.1-.5-.4-1-.7-1.5l-.3-.7Z"/><polygon points="43.2 31.3 42.2 29.7 23.5 30.8 43.2 31.3"/><polygon points="40.8 27.4 39.5 25.3 20.6 29.9 40.8 27.4"/><polygon points="37.4 21.7 36.2 19.8 22.4 28.2 37.4 21.7"/><path d="M29.6,26.9s.8-.1,1-.1,.5-.3,.6-.6c.2-.3-.1-.7-.4-1-.4-.4-.7,0-1,.2s-.4,.3-.8,.6c-.5,.2-.4,.6-.2,.9,.2,.3,.8,0,.8,0Z"/><path d="M22.5,21.9c.3,.1,.3-.2,.3-.3s.6-.6,.7-.9-.6-.1-.7,0-.4,.3-.4,.7c0,.6,.1,.5,.1,.5Z"/><path d="M27.3,16.1c.1,0,.1-.3,.3-.5,.2-.3,.3-.2,.7-.4,.4-.2,.4-.7,.2-1.4s-.2-.5-.5-.3-.3,.3-.8,.4c-.5,.1-.4,.1-.7,.1-.4,0-.5,.8-.5,1.1s-.2,.5,0,.7c.2,.2,.9,.3,.9,.3h.4Z"/><path d="M18.5,22.1c.4,.1,.9-.1,.9-.1,0,0,0-.7,.2-1.1s-.2-.7-.3-.6c-.1,.1-.3,.5-.7,.8-.5,.3-.4,.9-.1,1Z"/><path d="M14.8,19.3c.1-.1,0-.6,.2-1.1s-.2-.9-.5-.9c-.4,.1-.7,.6-.7,.6,0,0,.4,.6,.4,1,.1,.5,.5,.5,.6,.4Z"/><path d="M18.1,23.7c.2,.3,.4,.1,.4,0s.1-.6,.1-.6c0,0-.3-.4-.4-.4-.1,.2-.3,.7-.1,1Z"/><path d="M20.7,15.3c.3,.3,1-.3,1-.3,0,0,1.1-1.2,1.6-1.9,.5-.8,.2-1.1-.2-.8-.4,.3-.6,.4-.9-.2-.2-.6-.8,.4-1,.8-.2,.4-.8,.8-.9,1.1s.1,1,.4,1.3Z"/><path d="M15.5,20.1c0-.1-.2,0,0,0h0Z"/><path d="M16,28.3L21,4.6c-.1,.2-.2,.4-.4,.6l-3,5-1.1,9.7s-.2,0-.8,.2c-.1,0-.2,.1-.3,.1,0,.2,0,1-.2,1.2-.3,.2-.5,.7-.5,1.3s1.3,.7,1.3,.7l-.1,2.4c-.8-.2-1.2,0-1.2,0l-1.8-7.9-.6,1.1,2.3,9c.5-.2,1.4,.3,1.4,.3Z"/><polygon points="32 12.8 31.4 11.8 21.3 24.5 32 12.8"/><polygon points="34.9 17.7 33.4 15.2 18.5 29.9 34.9 17.7"/><path d="M11.5,26.2l.6,1s.3-.3,.8-.2c.6,.2,.3,.5,.4,.7,.1,.2,.9,0,.9,0l-3.3-6.6-.7,1.2,1.9,3.3-.6,.6Z"/><path d="M24.9,9.2s1.2-.8,1.6-1.5l-9.3,21.1,.8-1.4c.1,0,.4,0,.5,.2,.1,.1,.2,.3,.3,.4h-.3c-.1,0-.4,.1-.4,.3,0,.1,.2,.2,.4,.2s.4-.3,.5-.5c.2,.1,.3,.1,.4-.1,.1-.4-.1-.3,.5-.6,.6-.3,1-.9,.9-1s-.5,0-.6,.2-.8,.7-.8,.4v-.7c0-.1-.2-.3-.4-.4L29.5,8.5l-.9-1.5-2.6,4.2,2.3-4.8-.8-1.4c-.6-1-1.4-1.8-2.2-2.1-.1,.1-.2,.1-.3,.2-.2,.2-1.4,1.4-.9,2.1,.5,.7-.9,1.8-1,2.9-.2,1.2,1.8,1.1,1.8,1.1Z"/></svg>