<?xml version="1.0" encoding="UTF-8"?><svg id="a" xmlns="http://www.w3.org/2000/svg" viewBox="0 0 48.08 41.6"><path d="M46.8,31.8L29.9,3.7c-1.4-2.4-3.5-3.7-5.8-3.7s-4.4,1.4-5.8,3.7L1.3,31.8c-1.5,2.4-1.7,4.9-.6,6.8,1.1,1.9,3.3,3,6.1,3H41.2c2.8,0,5-1.1,6.1-3,1.2-2,1-4.4-.5-6.8Zm-5.5,7.5H6.9c-4.1,0-5.8-2.9-3.6-6.4L20.2,4.8c2.1-3.5,5.6-3.5,7.8,0l16.9,28.1c2.1,3.5,.5,6.4-3.6,6.4Z"/><path d="M21.4,21.7c1.1,.1,2-.7,2.1-1.8,.1-1.1-.7-2-1.8-2.1-1.1-.1-2,.7-2.1,1.8-.1,1,.7,2,1.8,2.1Z"/><path d="M30.2,32s0-.6-1.4-1.8c-.7-.7-1.6-1.3-2.2-1.8l-2-5.3,2.5-2.4s.3-.2,.2-.5c0,0-.1-.1,0-.2l-1.8-3.9s-1.5-.6-2,.2c-.4,.8,1,1.2,1,1.2l1.1,2.5-2.1,1.6-2.7,.8c-.7,.2-.9,.8-.9,.8l-1.1,3.1s-.7,1.2,.2,2c.9,.8,1.7,1.4,1.7,1.4,0,0,.4,.9,1.1,.6s.6-.9,.5-1.1c0-.1-1.4-1.2-2-1.7,0,0-.1,0-.1-.1-.1-.1-.1-.2-.1-.5l.9-2.2,3,8.3-1.9,3.5s-.3,1.1,.5,1.4c.8,.3,1.1-.3,1.3-.7,.2-.4,1.9-3.5,1.9-3.5,0,0,.2-.4,.1-.8,0-.2-.5-1.8-.6-2.7l.3-.1,1.8,1.3s.5,.2,.8,1.1c.3,.9,1.1,3.6,1.1,3.6,0,0,.5,.9,1.2,.6,.8-.3,.7-1.1,.5-1.8-.1-.5-.8-2.9-.8-2.9Z"/><path d="M20.9,13.3c.5,0,.9-.4,.9-.8s-.4-.8-.9-.8-.9,.4-.9,.8,.4,.8,.9,.8Z"/><rect x="22.79" y="10.49" width="3.5" height="1.6" transform="translate(-2.38 9.07) rotate(-19.99)"/><path d="M26.1,12.3c-.5,.6,.4,.8,.4,.8,0,0,.6-.1,1.3-.6s.7-1.5-.1-1.1c-.9,.4-1.1,.3-1.6,.9Z"/><rect x="20.7" y="8.2" width=".3" height="3.3"/><rect x="23" y="6.4" width=".3" height="3.3"/><rect x="25" y="6.4" width=".3" height="2.8"/><rect x="27" y="7.6" width=".3" height="3.3"/></svg>