<?xml version="1.0" encoding="UTF-8"?><svg id="a" xmlns="http://www.w3.org/2000/svg" viewBox="0 0 48.08 41.6"><path d="M46.8,31.8L29.9,3.7c-1.4-2.4-3.5-3.7-5.8-3.7s-4.4,1.4-5.8,3.7L1.3,31.8c-1.5,2.4-1.7,4.9-.6,6.8,1.1,1.9,3.3,3,6.1,3H41.2c2.8,0,5-1.1,6.1-3,1.2-2,1-4.4-.5-6.8Zm-5.5,7.5H6.9c-4.1,0-5.8-2.9-3.6-6.4L20.2,4.8c2.1-3.5,5.6-3.5,7.8,0l16.9,28.1c2.1,3.5,.5,6.4-3.6,6.4Z"/><path d="M16.3,29.8H6.4c-.3,0-.5,.2-.5,.5s.2,.5,.5,.5H15.7v7.4c0,.3,.2,.5,.5,.5s.5-.2,.5-.5v-7.9c.1-.3-.2-.5-.4-.5Z"/><path d="M34.5,21.5l-2.4-2.6c0-.1-.1-.1-.2-.1,0,0-.1,0-.1-.1-1.8-1-3.4-1-3.4-1l-2.3-1.9-1.4-3.1c-.2-.4-.7-.6-1.2-.4-.4,.2-.6,.7-.4,1.2l1.5,3.3c.1,.1,.1,.2,.2,.3l2.6,2.1h.1l-2.1,3.5-5.5,.7-4.5,3.2c-.4,.3-.5,.9-.2,1.3s.9,.5,1.3,.2l4.1-2.9,4.3-.6,.5,.4-3.2,2.5-2.1,4.7c-.2,.5,0,1,.4,1.3,.2,.1,.4,.1,.6,.1,.3-.1,.5-.2,.6-.5l2-4.2,4.8-3.8,3.1-4.2,1.5,1.6,.4,2.9c.1,.4,.5,.8,.9,.7h.1c.4-.1,.6-.5,.6-.9l-.4-3.3c0-.2-.1-.3-.2-.4Z"/><path d="M30.7,17.8c1-.2,1.6-1.2,1.3-2.1s-1.2-1.6-2.1-1.3-1.6,1.2-1.3,2.1c.2,1,1.1,1.6,2.1,1.3Z"/></svg>