<?xml version="1.0" encoding="UTF-8"?><svg id="a" xmlns="http://www.w3.org/2000/svg" viewBox="0 0 48 41.6"><g id="b"><path d="M46.7,31.8L29.8,3.7c-1.4-2.4-3.5-3.7-5.8-3.7s-4.4,1.4-5.8,3.7L1.3,31.8c-1.5,2.4-1.7,4.9-.6,6.8s3.3,3,6.1,3H41.2c2.8,0,5-1.1,6.1-3,1.1-1.9,.9-4.4-.6-6.8Zm-5.5,7.6H6.8c-4.1,0-5.8-2.9-3.6-6.4L20.2,4.9c2.1-3.5,5.6-3.5,7.8,0l17,28.1c2,3.5,.3,6.4-3.8,6.4Z"/><path d="M20.3,34c0-2.3-1.9-4.2-4.2-4.2s-4.1,1.9-4.1,4.2,1.9,4.2,4.2,4.2,4.1-1.9,4.1-4.2Z"/><path d="M10.1,29.8v4.6h.9v-.5c0-2.8,2.3-5.1,5.1-5.1s5.1,2.3,5.1,5.1v.5h2.8v1.9c0,.2,.1,.3,.3,.3h1.9c0-.2-.1-.4-.1-.5,0-.8,.2-1.5,.6-2l-2.9-3.7,.1-.2,1.1,.1v-5l-.6-.1v-.2l.7-.6v-.1c0-.4,0-.9-.1-1.3l-1,.1v.2H15.6v-6.5h6.5l1.5,5.2,.6-1-1.6-5.6c-.1-.3-.3-.4-.6-.4h-7.4l-2.6,4.5v10.3h-1.9Zm5.6-4.6h.9v1.9h-.9v-1.9Z"/><polygon points="10.1 22.6 6.3 28.9 10.1 28.9 10.1 22.6"/><path d="M9.2,34.5v-3.7c0-.5-.4-.9-.9-.9h-2.6l-2.1,3.5c-.4,.7-.7,1.5-.8,2.1h5.4c.5-.1,1-.5,1-1Z"/><path d="M28.8,38.2c1.2,0,2.1-1,2.1-2.1,0-1.2-1-2.1-2.1-2.1-.4,0-.9,.1-1.2,.4l.3,.9-.2,.1-.5-.7c-.3,.4-.5,.9-.5,1.4,0,1.1,1,2.1,2.1,2.1Z"/><path d="M40.6,27.3c0-.2-.2-.3-.4-.3h-4.5c-.4,0-.7,.1-1,.4-.5,.4-1,.9-1.5,1.4l.8,.3c.4-.5,.8-.9,1.3-1.4,.1-.1,.3-.2,.5-.2h3.1l.5,3.2h-6.7c.2-.3,.5-.6,.7-.9h-1.1l-.3,.3c-1.3,.1-2.5,.2-3.8,.4l.9,1.7-.1,.3-2.1-.7,.6,1.8c.4-.2,.8-.2,1.4-.2,2.1,0,2.7,1.2,2.7,2.7,0,.2,0,.4-.1,.5h13.7c.2-.9,0-2.1-.8-3.3l-1.9-3.1h-.8l-1.1-2.9Zm-2.7,4.5h1.6v.5h-1.6v-.5h0Zm6.4,4.3h-11.7v-.5h11.7v.5Z"/><polygon points="27.6 34.8 26.6 31.7 26.8 31.5 28.9 32.2 27.7 30.1 27.8 29.9 34.7 29.5 27.4 26.8 27.4 26.6 30.4 25.6 27.3 24.6 27.3 24.4 33.2 19.7 26.4 21.5 26.2 21.4 26.5 17.8 23.3 23 27.1 22.3 27.2 22.5 24.6 25 26.7 25.4 26.8 25.6 25.4 27.5 27.7 28.7 27.6 28.9 25.7 29.5 26.8 30.5 26.8 30.7 24.1 30.5 27.6 34.8"/></g></svg>