<?xml version="1.0" encoding="UTF-8"?><svg id="a" xmlns="http://www.w3.org/2000/svg" viewBox="0 0 471.93 410.45"><path d="M471.23,342.49c-1.65-6.69-3.8-13.06-6.47-19.1-1.71-3.87-4.92-9.71-9.62-17.51-53.61-88.99-107.22-177.99-160.83-266.99-8.54-14.18-18.81-25.64-33.78-33.22-2.15-1.09-6.31-2.56-12.48-4.41-6.47-1.94-14.56-1.07-21.31-1.02-1.61,.01-2.51,.97-3.74,1.28-17.14,4.25-30.46,14.9-40.47,28.96-1.2,1.69-4.71,7.35-10.53,17C125.82,124.06,79.67,200.66,33.56,277.28c-4.59,7.63-9.22,15.23-13.89,22.81-6.86,11.14-11.14,18.7-12.85,22.67-2.4,5.61-3.8,11.32-5.86,17.11-.64,1.79-.96,3.58-.96,5.36v17.03c0,1.05,.24,2.13,.71,3.25,1.11,2.61,1.95,6.37,2.59,8.08,7.75,20.56,25.67,31.43,46.49,35.41h0c11.01,2.11,25.58,1.19,38.11,1.22,105.11,.26,210.23,.24,315.35,.23,27.08,0,53.93-9.41,64.93-36.3,.53-1.29,1.33-3.89,2.42-7.78,.72-2.61,1.1-5.28,1.13-8.02,.06-4.86,.65-11.2-.5-15.86Zm-34.67,37.39c-7.25,5.27-19.97,8.23-29.06,8.19-11.26-.05-22.5,.5-33.76,.34-11.24-.17-16.9-.25-16.99-.25-96.28-.34-192.57,.25-288.85-.22-9.32-.05-15.87-.6-19.65-1.67-7.27-2.05-13.58-5.93-18.92-11.65-13.76-14.74-6.13-37.18,2.69-51.81C87.1,231.52,142.1,140.19,197.03,48.82c10.81-17.98,30.31-33.09,52.27-23.68,13.14,5.63,19.75,15.03,27.92,28.6,53.81,89.33,107.68,178.63,161.62,267.89,4.98,8.24,9.21,17.18,10.49,26.82,1.6,12.13-2.96,24.3-12.77,31.43Z"/><path d="M111.33,200.71h21.95c.98,0,1.78-.8,1.78-1.78v-25.07c.01-1.05-.85-1.92-1.91-1.92l-4.86-.05c-.35,0-.67,.18-.85,.48l-16.59,27.5h0c-.33,.56-.17,.84,.48,.84Z"/><rect x="141.16" y="171.91" width="32.4" height="28.8" rx="1.6" ry="1.6"/><rect x="179.96" y="171.91" width="33.1" height="28.8" rx="1.62" ry="1.62"/><path d="M103.99,233.02h28.51c1.71,0,2.56-.85,2.57-2.56v-24.26c0-1.14-.93-2.07-2.08-2.08h-24.04c-.41,0-.72,.17-.93,.52-1.68,2.8-3.77,6.19-5.28,8.87h0c-.69,1.23-1.03,2.59-1.02,4.1,.03,4.42,.03,8.81,.03,13.16-.01,1.25,1,2.26,2.24,2.25Z"/><rect x="141.16" y="204.12" width="32.4" height="28.9" rx="2.18" ry="2.18"/><path d="M182.06,233l28.86,.05c1.17,0,2.12-.95,2.12-2.12l.04-24.66c-.01-1.17-.95-2.12-2.12-2.12l-28.86-.05c-1.17,0-2.12,.95-2.12,2.12l-.04,24.66c.01,1.17,.95,2.12,2.12,2.12Z"/><path d="M91.59,233.05c1.21,.13,2.29-.15,3.24-.86,.31-.23,.46-.54,.47-.93l.04-4.87c0-.49-.12-.52-.37-.11l-3.7,6.12c-.23,.39-.13,.6,.32,.65Z"/><path d="M43.68,312.41c6.8,4.01,18.61,6.31,25.82,1.56,2.69-1.78,5.34-3.59,7.94-5.42,.29-.21,.68-.21,.97,0,2.4,1.74,4.91,3.99,7.39,5.22,11.39,5.66,21.75,1.92,31.79-4.72,1.29-.85,2.29-.92,3-.21,6.33,6.28,13.81,8.84,22.44,7.68,3.31-.45,7.43-2.2,11.26-3.07,.35-.08,.69-.05,1.02,.1,12.23,5.29,23.21,3.71,32.95-4.74,.56-.48,1.37-.53,1.98-.11,13.1,8.91,27.66,11.34,40.1-.42,.19-.19,.24-.41,.15-.66l-.13-.32c-.07-.19,.06-.4,.26-.43,1.37-.14,2.73-.26,4.07-.36,1.74-.14,3.15-1.32,2.19-3.1h0c-.14-.27-.06-.42,.24-.45,.56-.06,1.08-.36,1.55-.9,.24-.27,.45-.55,.62-.83l1.53-2.45c.21-.33,.14-.6-.21-.79-5.59-3.05-.68-7.64,1.65-10.57,.2-.26,.07-.64-.25-.7l-9.48-1.91c-.18-.04-.26-.26-.13-.4l8.37-9.12c.66-.72,.51-.99-.46-.82l-9.61,1.73c-2.26,.41-3.93-2.06-2.72-4.01,4.84-7.83,9.47-15.3,13.89-22.43,1.66-2.66,4.16-3.63,6.16-.6,.25,.39,.37,.85,.34,1.31l-.87,11.92c-.01,.25,.21,.43,.45,.37l16.29-4.46c.48-.13,.89-.45,1.15-.88l16.26-27.32c.39-.66,.31-1.29-.25-1.89-.27-.29-.91-.42-1.9-.42-15.49,.07-30.99,.12-46.49,.15-2.65,0-6,.65-7.52,2.51-1.77,2.15-5.47,7.47-8.49,7.47-42.83,0-85.55,0-128.16,0-.55,0-1.06,.29-1.35,.76l-43.98,73.02c-.18,.29-.12,.53,.17,.71Zm162.83-53.3c3.58-.45,6.83,1.99,7.26,5.44,.43,3.46-2.12,6.62-5.7,7.06-3.58,.45-6.83-1.99-7.26-5.44-.43-3.46,2.12-6.62,5.7-7.06Zm-32.02-.19c3.55,0,6.43,2.88,6.43,6.43s-2.88,6.43-6.43,6.43-6.43-2.88-6.43-6.43,2.88-6.43,6.43-6.43Z"/><path d="M264.3,282.83c.59,.23,1.19,.43,1.82,.58,.41,.1,.62,.36,.63,.79v2.97c0,.28-.18,.53-.44,.62l-6.83,2.35c-1.63,.57-1.64,1.16-.03,1.77,7.96,3.05,16.04,6.18,24.25,9.39,3.44,1.34,2.62,5.68-.45,5.84-9.15,.49-18.11,.99-26.89,1.51-.59,.03-.74,.31-.47,.83l2.43,4.66c.29,.54,.71,.7,1.28,.48,4.17-1.61,8.06-3.72,11.69-6.33,.25-.18,.58-.16,.81,.04,10.96,9.19,20.72,10.24,33.97,4.99,.3-.12,.64-.11,.94,.01,5.21,2.17,8.85,3.55,15.47,3.29,6.92-.28,12.56-2.52,17.12-7.5,.83-.9,2.19-1.05,3.2-.36,9.4,6.48,23.06,11.84,33.58,4.11,1.14-.84,2.04-2.05,2.7-3.62,2.98-7.11,6.11-14.14,9.4-21.11,.1-.2-.05-.43-.27-.43h-20.21c-.82,0-1.49-.67-1.49-1.5l.06-28.08c0-1.01,.5-1.54,1.51-1.61l3.69-.26c.83-.06,1.49-.74,1.52-1.57l.04-1.18c.04-1.06-.47-1.6-1.53-1.6h-18.5c-.6,0-1.09-.45-1.15-1.03l-.29-3.07c-.06-.64-.84-.91-1.28-.44-.73,.77-1.01,1.71-.84,2.82,.17,1.11-.32,1.69-1.45,1.74h-.36c-1.05,.03-1.6-.48-1.6-1.54l-.07-8.58c-.01-.87-.44-1.33-1.31-1.39l-.56-.04c-.49-.03-.91,.36-.91,.85l-.07,9.27c0,.79-.64,1.41-1.43,1.41h-20.18c-1,0-1.53,.5-1.58,1.5l-.06,.98c-.07,1.25,.52,1.88,1.77,1.89l7.84,.05h0c.36,0,.65,.29,.66,.65v12.95c0,.54-.44,.99-.98,.99h-21.22c-.59,.01-1.06,.48-1.06,1.06l-.02,14.24c0,1.27-.63,1.86-1.9,1.75-3.49-.29-6.98-.34-10.47-.16-4.49,.23-7.85-.47-9.5-4.72-.32-.83-1.12-1.38-2.01-1.38h-18.75c-2.06,0-2.13,.37-.22,1.12Zm71.16-22.47c0-.66,.53-1.19,1.19-1.19l23.88,.04c.66,0,1.19,.54,1.19,1.19h-.02v7.82c0,.66-.53,1.19-1.19,1.19l-23.88-.04c-.66,0-1.19-.54-1.17-1.19v-7.82Z"/><path d="M233.35,307.97c-.45,0-.7,.51-.43,.86,4.97,6.43,10.08,12.81,15.32,19.16,.61,.74,1.29,1.05,2.02,.94,.8-.12,1.3-.92,1.08-1.7l-3.24-11.27c-.06-.2,.13-.38,.33-.32l10.27,3.24c.46,.15,.58,0,.35-.42l-5.75-10.77c-.15-.27-.07-.41,.23-.42l29.23-1.66c.99-.05,1.73-.93,1.61-1.91-.03-.22-.19-.48-.49-.77-.2-.19-.46-.34-.78-.47-9.96-3.79-19.82-7.5-29.58-11.14-.61-.22-.61-.44,0-.65l9.25-3.24c3.53-1.23,3.52-2.43-.03-3.6l-10.74-3.55c-.37-.13-.41-.32-.1-.57,8.09-6.62,16.21-13.21,24.34-19.77,1.24-1,1.35-1.95,.34-2.85-.36-.32-.86-.44-1.34-.31l-29,8c-.28,.08-.55-.16-.52-.45,.5-4.49,.88-8.95,1.14-13.37,.04-.74-.05-1.23-.28-1.47-.87-.92-2.37-.77-3.04,.31-4.57,7.34-9.1,14.64-13.59,21.9-.39,.62-.43,1.49-.13,2.61,.09,.33,.31,.47,.66,.41l14.52-2.62c.45-.09,.52,.04,.21,.38l-9.74,10.7c-.25,.27-.11,.71,.25,.78l8.85,1.77c.44,.09,.52,.31,.25,.66l-4.79,6.16c-.98,1.26-.59,3.11,.82,3.86l7.25,3.87c.54,.29,.52,.54-.06,.73l-7.98,2.64c-.52,.17-.57,.44-.16,.8l3.94,3.41h0c.17,.15,.14,.22-.08,.21l-10.42-.1Z"/><path d="M382.64,310.28c-3.56,2.51-7.42,5.52-11.37,6.77-9.98,3.14-20.97-.88-29.12-7.09-.27-.2-.64-.2-.9,.02-4.81,3.94-8.96,7.14-15.5,7.97-6.37,.81-12.41-.12-18.13-2.77-.87-.41-1.83-.32-2.6,.05-12.73,6.08-22.47,2.65-32.82-5.32-.27-.21-.56-.23-.86-.05-3.5,2.13-7.03,4.63-10.92,5.92-.51,.17-.75,.77-.49,1.25l2.07,3.89h0c.24,.45,.12,.59-.37,.44l-10.83-3.4c-.27-.08-.52,.16-.45,.43l2.62,9.59c.08,.29,.27,.43,.57,.41,6.71-.34,12.48-2.8,17.33-7.38,.83-.78,2.11-.84,3-.12,10.52,8.43,20.8,11.71,32.44,3.16,.27-.2,.55-.2,.82,0,12.12,9.16,22.3,4.88,32.83-3.31,.65-.5,1.56-.47,2.17,.08,12.09,10.86,27.56,9.62,39.53-.29,.73-.6,1.78-.6,2.51,0,11.83,9.67,27.92,11.41,39.51,.28,.6-.57,1.52-.62,2.17-.12,3.4,2.6,6.76,5.47,10.77,7,.67,.26,.83,.08,.48-.55-3.5-6.32-6.51-12.96-12.44-17.08-.41-.29-.96-.27-1.36,.03-9.52,7.3-21.99,11.12-33.47,4.77-1.45-.79-3.56-2.31-6.35-4.56-.27-.22-.55-.23-.84-.02Z"/><path d="M76.42,320.6c.88-.73,1.77-.73,2.66-.02,10.97,8.76,26.04,11.5,37.79,1.76,1.03-.86,1.85-1.53,2.44-2,.3-.23,.6-.23,.9,0,3.26,2.54,6.8,5.46,10.4,6.96,8.23,3.44,15.98,2.32,23.26-3.36h0c.29-.22,.57-.22,.85,.01,10.29,8.18,23.47,5.77,32.28-3.14,.75-.76,1.95-.82,2.77-.14,8.35,6.9,17.04,9.82,27.77,6.24,3.75-1.26,7.71-3.9,11.16-6.18,1.16-.76,2.67-.7,3.76,.16,3.72,2.94,7.86,5.08,12.41,6.43,.72,.21,.85,.03,.38-.56-3.49-4.39-7.04-8.85-10.64-13.39-1.14-1.43-2.31-2.34-3.81-3.23-.36-.22-.82-.17-1.13,.12-12.34,11.53-26.35,8.89-39.21,.16-.79-.54-1.86-.48-2.58,.16-9.7,8.48-20.59,10-32.68,4.55-.55-.25-1.11-.28-1.68-.07-12.38,4.46-23.43,5.22-33.44-4.79-.51-.51-1.3-.57-1.88-.15-12.42,9.05-27.49,11.93-39.47,.31-.36-.36-.93-.4-1.35-.1-3.28,2.36-7.01,5.25-10.61,6.5-7.93,2.75-16.92,.91-23.97-3.24-.21-.12-.37-.08-.49,.12l-4.45,7.48c-.09,.16-.07,.3,.08,.42,12.05,10.11,27.07,8.41,38.48-1.01Z"/><path d="M441.89,341.98c-6.26-.84-11.7-3.37-16.32-7.6-.83-.76-2.09-.84-3-.18-12.92,9.37-26.53,10.65-38.77-.1-.39-.35-.97-.38-1.4-.07-3.47,2.52-7.25,5.46-11.21,6.63-9.72,2.86-20.01-.56-27.84-6.26-1.1-.8-2.62-.7-3.61,.23-8.53,8.01-20.87,9.49-31.77,4.27-.69-.33-1.49-.37-2.21-.1-4.15,1.52-8.84,3.08-13.12,3.17-7.45,.15-13.85-2.35-19.2-7.51-.94-.91-2.41-.99-3.45-.19-3.2,2.45-6.84,4.41-10.91,5.88-10.59,3.83-19.69,.77-27.99-6.21-.27-.23-.56-.25-.85-.05-3.42,2.32-7.06,5.23-10.66,6.53-9.62,3.47-20.89-.27-28.7-6.08-.97-.72-2.31-.66-3.21,.14-9.04,8-19.39,9.59-31.05,4.77-1.74-.71-3.19-.81-4.36-.3-11.99,5.29-22.6,3.74-31.82-4.63-.86-.78-2.16-.84-3.08-.13-11.95,9.19-26.84,10.78-38.54,0-.46-.42-1.15-.46-1.66-.09-3.54,2.62-7.48,5.56-11.58,6.7-9.44,2.61-19.69-.74-27.28-6.36-.96-.71-2.26-.72-3.23-.04-2.34,1.64-4.85,3.16-5.56,6.19-.58,2.47-.83,5.01-.76,7.6,.01,.35,.17,.44,.47,.25,1.82-1.13,3.17-2.1,4.05-2.93,2.8-2.64,4.49-.47,6.69,1.22,11.05,8.5,25.86,6.13,36.02-2.18,.96-.79,2.33-.82,3.33-.08,12.24,9.12,27.2,11.03,38.88,.29,.86-.79,2.17-.82,3.06-.07,7.96,6.74,16.33,10.49,26.67,6.44,1.96-.76,3.95-2.21,5.83-3.41h0c.3-.2,.6-.19,.89,.02,9.17,6.56,18.45,6.63,27.86,.2,1.63-1.11,3.19-2.23,4.68-3.34,.78-.59,1.86-.58,2.63,.02,6.69,5.2,12.61,8.31,21.43,7.24,6.77-.82,12.58-3.27,17.45-7.36,1.04-.88,2.56-.88,3.61-.02,11,9.08,27.65,10.96,38.43,.37,.81-.8,2.09-.9,3.02-.23,1.47,1.06,3.03,2.16,4.69,3.31,9.39,6.52,18.69,6.48,27.9-.11,.3-.21,.6-.22,.91-.03,1.29,.77,2.7,1.85,3.79,2.4,10.88,5.45,19.59,1.63,28.37-5.47,1.01-.82,2.48-.76,3.42,.14,10.76,10.26,26.41,8.9,37.92,.01,1.17-.89,2.61-1.35,3.78-.47,11.78,8.86,26.79,11.4,38.49,.57,1.11-1.03,2.11-1.2,3-.49,4.62,3.66,9.68,7.43,15.58,8.06,1.05,.11,1.54-.36,1.46-1.42l-.62-8.56c-.03-.35-.21-.54-.55-.58Z"/><path d="M438.05,366.31c-4.77-1.25-8.95-3.57-12.53-6.94-.82-.77-2.07-.82-2.95-.13-9.95,7.77-22.63,10.53-33.84,3.43-1.77-1.12-3.56-2.32-5.35-3.61-.26-.19-.61-.19-.87,0-3.27,2.28-6.78,5.06-10.27,6.36-9.76,3.64-21.01-.14-28.93-5.97-1.13-.83-2.7-.7-3.68,.3-8.04,8.26-20.83,8.98-31.1,4.53-.61-.26-1.14-.42-1.6-.47-.76-.08-1.32-.04-1.68,.13-12.07,5.43-22.8,3.89-32.18-4.6-.78-.7-1.95-.76-2.79-.14-13.08,9.65-26.41,10.61-39.24-.18-.26-.22-.63-.23-.9-.04-6.88,5-12.3,8.95-21.87,7.57-6.4-.93-12.22-3.3-17.46-7.13-.98-.72-2.33-.65-3.23,.16-9.19,8.21-19.8,9.78-31.85,4.73-1.39-.58-2.71-.6-3.96-.07-11.81,5.05-22.24,3.44-31.31-4.83-.85-.78-2.14-.84-3.06-.14-3.63,2.77-7.68,4.87-12.15,6.29-10.78,3.43-18.55,0-26.97-6.55-.27-.21-.55-.22-.84-.02-3.44,2.48-7.15,5.37-10.96,6.62-9.76,3.2-20.2-.31-28.26-6.11-2.37-1.72-5.22,1.73-6.98,3.04-.35,.26-.42,.58-.19,.95l3.15,5.19c.18,.29,.44,.45,.78,.48,.96,.08,1.74,.17,2.51,.82,11.91,10.1,26.8,9.2,38.59-.41,1.02-.84,2.48-.84,3.48,0,11.18,9.24,27,10.75,38.21,.68,1.29-1.16,2.45-1.33,3.46-.5,10.39,8.5,21,11.77,32.55,2.99h0c.3-.22,.6-.22,.89,0,10.62,8.2,22.74,5.78,32.09-2.9,.91-.84,2.3-.87,3.25-.08,12.18,10.22,26.61,9.57,38.75-.17,1.03-.83,2.49-.82,3.52,.01,11.04,9,26.51,10.75,37.7,1.05,.71-.62,1.27-1.01,1.67-1.18,.87-.37,1.59-.32,2.16,.15,1.77,1.43,3.61,2.77,5.53,4,9.33,5.97,18.29,5.72,26.9-.74,.28-.21,.66-.21,.94-.01,11.46,8.17,21.38,5.44,31.71-2.63,1.76-1.38,2.77-1.28,4.37,.15,11.23,10.04,26.59,8.15,37.88-.73,1.05-.82,2.52-.82,3.57,0,11.6,9.08,27.06,10.8,38.42,.35,.93-.85,2.32-.92,3.32-.16l5.2,3.96c.19,.14,.46,.13,.64-.02,2.37-2.01,4.36-4.34,5.96-7,.11-.19,0-.44-.2-.49Z"/></svg>