<?xml version="1.0" encoding="UTF-8"?><svg id="a" xmlns="http://www.w3.org/2000/svg" viewBox="0 0 48.08 41.6"><path d="M46.8,31.8L29.9,3.7c-1.4-2.4-3.5-3.7-5.8-3.7s-4.4,1.4-5.8,3.7L1.3,31.8c-1.5,2.4-1.7,4.9-.6,6.8s3.3,3,6.1,3H41.2c2.8,0,5-1.1,6.1-3,1.2-2,1-4.4-.5-6.8Zm-5.5,7.5H6.9c-4.1,0-5.8-2.9-3.6-6.4L20.2,4.8c2.1-3.5,5.6-3.5,7.8,0l16.9,28.1c2.1,3.5,.5,6.4-3.6,6.4Z"/><path d="M28.8,27.5h0l.6,.4-1.9-5.7s0-.4,.1-.5c.1-.2-.2,.1-.2,.1,0,0,0,.1-.1,.3,0,.1,0-.4-.1-.3-.1,.2-.1-.1-.1-.1v.1l-.2-.6c.1,0,.1,.1,.1,.1,.1,0-.1-.4-.1-.4,0,0,.1,.2,.2,.2s.2,.2,.2,.1-.2-.3-.3-.4c-.1-.1,.7,.2,.4,0-.3-.1-.4-.3-.4-.3l-2.1-5.1c1-.3,1.6-1.7,.8-2.8,0,0-.2-.4-.7-.6,0,0-.3-.1-.3-.4v-.2c.5-.2,.8-.6,.8-1.2s-.3-1-.8-1.2V3.1h-.8v6.1c-.5,.2-.8,.6-.8,1.2s.3,1,.8,1.2v.2s0,.3,.3,.6,1.1,.3,.9,1.3c-.1,.8-1.1,.7-1.5,.4-.5-.5-.2-1.7-.6-1.7,0,0-.4,.5-.4,1.4,0,.7,.5,1.4,1.3,1.6l-5.8,8.6-3.5,1.3v4.7l2.3,1.3,6.6-2.5v-5.3l-1.5-1.1-2.9,1.1,5-7.9v1.2l-.3,6.6,.2,.6,.2-5.4,.5,5.9-.7-.5v5.2l-6.6,2.4,4.9,2.8,6.5-2.4v-4.5h0Zm-3.5-2.5l-.8-8.9,2,4.7s.2,.3,0,.7c-.1,.2,.1,0,.1,0,0,0,.1-.2,.1-.3,0,0,0,.1,.1,0h0l.3,.8v.1h-.1c-.1,0-.3-.2-.2-.1,0,.1,.1,.2,.3,.3,.1,.1-.6-.2-.3,0,.4,.2,.4,.4,.4,.4l1.6,4.9-3.5-2.6Z"/><polygon points="29.3 32.3 22.8 34.7 25.2 36 31.7 33.7 31.7 29.6 29.3 27.9 29.3 32.3"/></svg>