<?xml version="1.0" encoding="UTF-8"?><svg id="a" xmlns="http://www.w3.org/2000/svg" viewBox="0 0 48 41.6"><path d="M46.7,31.8L29.8,3.7c-1.4-2.4-3.5-3.7-5.8-3.7s-4.4,1.4-5.8,3.7L1.3,31.8c-1.5,2.4-1.7,4.9-.6,6.8,1.1,1.9,3.3,3,6.1,3H41.2c2.8,0,5-1.1,6.1-3s.9-4.4-.6-6.8Zm-5.5,7.6H6.8c-4.1,0-5.8-2.9-3.6-6.4L20.2,4.9c2.1-3.5,5.6-3.5,7.8,0l17,28.1c2,3.5,.3,6.4-3.8,6.4Z"/><path d="M31.7,21.6c-1.9-.4-2.6,2.5-2.8,3-.1,.5-.4-.9-.1-2.2,.3-1.2-.7-2.5-1.4-3.7-.8-1.2,.3-2.7,.3-2.7-3,1.4-1.8,5.4-1.8,5.4-1.8-.4-1-3.9-.5-6.1s-.5-3.1-.5-3.1c.6,2.5-.5,2.5-2.6,5.8-2.1,3.4,0,6.9,0,6.9,0,0-2.8-1.2-1.9-3.7,.9-2.3-.9-3.3-.9-3.3,.6,.8-1,2.6-1.4,3.9-.5,1.2,.6,2.6,.8,3.1,.2,.4-.7,.3-1.2-.6s-1.6-.6-1.6-.6c.5,.8,.1,2.2-.5,3.3-.6,1.1-.7,3-.7,3,0,5.4,5.2,5.3,5.2,5.3,0,0-2.3-1.5-2.9-3.1-.8-2,1-3.3,1-3.3-.3,1.4,.6,2.5,1.5,2.4s.1-2.4,.7-3.4,.1-1.9,.1-1.9c.7,.3,.7,1.1,.7,1.1-.3,3,2,3.9,2,3.9-1.2-1.7,.1-4.2,.7-5.4,.6-1.1-.2-2.2-.2-2.2,2.3,1.6,1.7,5,1.7,5,0,0,1.2-.3,.8-1.9-.4-1.4,.4-2.2,.6-2.4,0,.1,0,.6,.4,2.2,.6,2.5-.3,3.3-.3,3.3,0,0,1.1,.2,1.4-.9s1.3-.9,1.3-.9c-.7,1,.3,1.3,.7,3.6,.4,2.3-1.8,3.6-1.8,3.6,7.7-1.3,3.4-10,2.7-11.4-.7-1.4,.5-2,.5-2Z"/><rect x="15.5" y="36" width="16.9" height="1.3"/></svg>