<?xml version="1.0" encoding="UTF-8"?><svg id="a" xmlns="http://www.w3.org/2000/svg" viewBox="0 0 48 41.6"><path d="M46.7,31.8L29.8,3.7c-1.4-2.4-3.5-3.7-5.8-3.7s-4.4,1.4-5.8,3.7L1.3,31.8c-1.5,2.4-1.7,4.9-.6,6.8,1.1,1.9,3.3,3,6.1,3H41.2c2.8,0,5-1.1,6.1-3s.9-4.4-.6-6.8Zm-5.5,7.6H6.8c-4.1,0-5.8-2.9-3.6-6.4L20.2,4.9c2.1-3.5,5.6-3.5,7.8,0l17,28.1c2,3.5,.3,6.4-3.8,6.4Z"/><path d="M24.6,25.9c1.1-1.2,1-3.1-.2-4.2-1.2-1.1-3.1-1-4.2,.2-1.1,1.2-1,3.1,.2,4.2s3.1,1,4.2-.2Z"/><path d="M12.5,26.1l4.8,3.4c.3-.2,.6-.4,.8-.6l.6-.6,.6,.6c.6,.7,1.4,1,2.3,1s1.7-.4,2.3-1l.6-.6,.6,.6c.6,.7,1.4,1,2.3,1,.7,0,1.4-.2,1.9-.7l.1-1.4,.5-10c0-.8-.6-1.6-1.5-1.6-.8,0-1.6,.6-1.6,1.5l-.4,9-4.7,2.1-7.5-5.2c-.7-.5-1.6-.3-2.1,.4s-.3,1.6,.4,2.1Z"/><path d="M32.9,31.4c-.9,0-1.7-.4-2.3-1l-.6-.6-.5,.6c-.6,.7-1.4,1-2.3,1s-1.7-.4-2.3-1l-.6-.6-.6,.6c-.6,.7-1.4,1-2.3,1s-1.7-.4-2.3-1l-.5-.6-.6,.6c-.6,.7-1.4,1-2.3,1s-1.7-.4-2.3-1l-1.1,1c.9,1,2.1,1.5,3.4,1.5,1,0,2-.4,2.9-1,.8,.6,1.8,1,2.9,1,1,0,2-.4,2.9-1,.8,.6,1.8,1,2.9,1,1,0,2-.4,2.9-1,.8,.6,1.8,1,2.9,1,1.3,0,2.5-.5,3.4-1.5l-1.1-1c-.8,.7-1.6,1-2.5,1Z"/><path d="M32.9,34.6c-.9,0-1.7-.4-2.3-1l-.6-.6-.5,.6c-.6,.7-1.4,1-2.3,1s-1.7-.4-2.3-1l-.6-.6-.6,.6c-.6,.7-1.4,1-2.3,1s-1.7-.4-2.3-1l-.6-.6-.6,.6c-.6,.7-1.4,1-2.3,1s-1.7-.4-2.3-1l-1.1,1c.9,1,2.1,1.5,3.4,1.5,1,0,2-.4,2.9-1,.8,.6,1.8,1,2.9,1,1,0,2-.4,2.9-1,.8,.6,1.8,1,2.9,1s2-.4,2.9-1c.8,.6,1.8,1,2.9,1,1.3,0,2.5-.5,3.4-1.5l-1.1-1c-.7,.6-1.5,1-2.4,1Z"/></svg>