<?xml version="1.0" encoding="UTF-8"?><svg id="a" xmlns="http://www.w3.org/2000/svg" viewBox="0 0 48 41.6"><path d="M46.7,31.8L29.8,3.7c-1.4-2.4-3.5-3.7-5.8-3.7s-4.4,1.4-5.8,3.7L1.3,31.8c-1.5,2.4-1.7,4.9-.6,6.8,1.1,1.9,3.3,3,6.1,3H41.2c2.8,0,5-1.1,6.1-3,1.1-1.9,.9-4.4-.6-6.8Zm-5.5,7.6H6.8c-4.1,0-5.8-2.9-3.6-6.4L20.2,4.9c2.1-3.5,5.6-3.5,7.8,0l17,28.1c2,3.5,.3,6.4-3.8,6.4Z"/><path d="M22.7,18.5h0l-.7,.1-4.9,2.4,1.1,5.8,2.4-3.5v-.2l-.1-.7c0-.1,0-.2,.1-.3,.1-.1,.2-.2,.3-.2l2.5-.5,2.2-.4c.2,0,.5,.1,.5,.4l.1,.7q0,.1,.1,.2l3.5,2.4-1-5.9-5.4-.4-.7,.1Zm1.1,2.3l-1.3,.2-.4-2.1,1.3-.2,.4,2.1Z"/><path d="M30.1,27.2l-.2-1.4,.2-.4-.2-.6-3.7-2.5c-.1-.1-.2-.2-.2-.3l-.1-.7c0-.1-.2-.2-.3-.2l-.6,.1,.5,2.8,1.2-.2,.1,.6-5.8,1.1v-.5l1.2-.2-.5-2.8-.7,.1q-.1,0-.2,.1v.2l.1,.7c0,.1,0,.2-.1,.3l-2.5,3.6,.1,.6,.3,.3,.3,1.4,5.8,.4h0l2.3-1.1,1,2.2h-10.1l.6-1.5-.2-1.1-.3-.2-5.2,10.8h1.8l1.4-3.4h13.9l1.4,3.4h1.8l-5.1-10.6,2-1Zm-.7,6.7h-12.7l1-2.5h10.7l1,2.5Zm-1.8-9.1l-2.2,1.4v.2c0,.1-.1,.2-.3,.3l-.7,.1-1.1,.2h-.1c-.1,0-.2,0-.3-.1v-.2h0l-2.5-.5c-.1,0-.2-.1-.2-.1l-.2-.9h.2l.2,.9h0l2.5,.5c.1,0,.2,.1,.2,.1v.2h.1l.7-.1,1.1-.2h.1v-.2s0-.1,.1-.2l2.2-1.4-.2-.9h.2l.2,.9c.1-.2,.1-.1,0,0Z"/><polygon points="21.9 21.9 22.4 24.7 25.4 24.1 24.9 21.3 23.1 21.7 21.9 21.9"/><path d="M22.5,19.5c0,.2,.2,.4,.4,.3,.2,0,.4-.2,.3-.4,0-.2-.2-.4-.4-.3-.2,0-.3,.2-.3,.4Z"/><path d="M23,20c-.2,0-.4,.2-.3,.4,0,.2,.2,.4,.4,.3,.2,0,.4-.2,.3-.4,0-.2-.2-.3-.4-.3Z"/><path d="M16.4,18.9l.3-.1,.3,1.6,4.9-2.4,.7-.1h0l.7-.1,5.4,.4-.3-1.6,.3-.1-.4-2.3-.3,.2-.1-.6-2.2-.7-3.9,.7h0l-3.8,.7-1.8,1.5,.1,.6-.3,.1,.4,2.2Zm6.6-3.6l4.1-.8c.2,0,.3,.1,.3,.2l.3,1.8c0,.2-.1,.3-.2,.2l-1.3-.2h-.6l-2.4,.5c-.2,0-.3-.1-.3-.2l-.2-1.1c0-.2,.2-.4,.3-.4Zm-5.8,1.1l4.1-.8c.2,0,.3,.1,.3,.2l.2,1.1c0,.2-.1,.3-.2,.3l-2.4,.6c-.2,0-.4,.1-.5,.2l-1.1,.7c-.1,.1-.3,0-.3-.1l-.3-1.8c-.1-.2,0-.3,.2-.4Z"/><path d="M29.9,22.7l.4,.6,.4-.6,.7-1.1v2l.6-.3,1.2-.5-.6,1-.4,.6,.7,.2,1.3,.3-1.3,.4-.7,.2,.4,.5,.2,.2,.5-.1-.3-.3,2.8-1-2.8-.7,1.7-2.4-2.8,1.1-.1-2.9-1.5,2.5-.8-1.1,.3,1.2,.1,.2Z"/><path d="M33.7,28.9c-.8-.1-1.5,.5-1.6,1.4-.1,.8,.5,1.5,1.4,1.6,.8,.1,1.5-.5,1.6-1.4,0-.8-.6-1.6-1.4-1.6Zm-.1,2.1c-.4,0-.6-.3-.6-.7s.3-.6,.7-.6,.6,.3,.6,.7c-.1,.4-.4,.6-.7,.6Z"/><path d="M40.6,27.1l-4.8-.4c-.3,0-.4-.4-.1-.6l1.2-.8c.3-.2,.6-.2,.9-.2l1.7,.2-.3-.5-1.6-.2c-.4,0-.7,.1-1,.3l-2.3,1.5s-3.2,.5-3.7,1.1c0,0-.4,.7-.4,1.6-.3,0-.3,.1-.3,.1-.1,.6,0,.8,.3,.9,.1,0,.7,.1,1.5,.3v-.1c.1-1,1-1.8,2-1.7,1,.1,1.8,1,1.7,2v.1c.8,.1,7.7,.7,7.7,.7l-.1-.3-2.4-4Zm-8.9,1.3c-.2,.1-.6,.1-.9,.1-.1,0-.1-.1-.1-.2,0-.2,.1-.5,.2-.6s.5-.3,1.4-.5c.3,0-.2,1-.6,1.2Z"/></svg>