<?xml version="1.0" encoding="UTF-8"?><svg id="a" xmlns="http://www.w3.org/2000/svg" viewBox="0 0 48 41.6"><path d="M46.7,31.8L29.8,3.7c-1.4-2.4-3.5-3.7-5.8-3.7s-4.4,1.4-5.8,3.7L1.3,31.8c-1.5,2.4-1.7,4.9-.6,6.8,1.1,1.9,3.3,3,6.1,3H41.2c2.8,0,5-1.1,6.1-3,1.1-1.9,.9-4.4-.6-6.8Zm-5.5,7.6H6.8c-4.1,0-5.8-2.9-3.6-6.4L20.2,4.9c2.1-3.5,5.6-3.5,7.8,0l17,28.1c2,3.5,.3,6.4-3.8,6.4Z"/><path d="M29.9,24.8l-3.7-2.5c-.1-.1-.2-.2-.2-.3l-.1-.7c0-.1-.2-.2-.3-.2l-.6,.1,.5,2.8,1.2-.2,.1,.6-5.8,1.1v-.5l1.2-.2-.5-2.8-.7,.1q-.1,0-.2,.1v.2l.1,.7c0,.1,0,.2-.1,.3l-2.5,3.6,.1,.6,.3,.3,.3,1.4,5.8,.4h0l2.3-1.1,.5,1,.5-.1,.3-.7-.4-.7h0l-1.3-.3s-.2,0-.3-.2c-.1-.1-.1-.2,0-.4,.1-.2,.3-.4,.5-.4h.2l1.2,.3,1.4-.4h0l.3,.1-.1-1,.2-.4-.2-.6Zm-2.3,0l-2.2,1.4v.2c0,.1-.1,.2-.3,.3l-.7,.1-1.1,.2h-.1c-.1,0-.2,0-.3-.1v-.2h0l-2.5-.5c-.1,0-.2-.1-.2-.1l-.2-.9h.2l.2,.9h0l2.5,.5c.1,0,.2,.1,.2,.1v.2h.1l.7-.1,1.1-.2h.1v-.2s0-.1,.1-.2l2.2-1.4-.2-.9h.2l.2,.9c.1-.2,.1-.1,0,0Z"/><path d="M29,32l1.1,1c.1,.1,.2,.3,.2,.4,0,.2,0,.3-.2,.5-.1,.1-.3,.2-.5,.2s-.3-.1-.4-.2h-12.5l1-2.5h8l.2-.6h-7.9l.6-1.5-.2-1.1-.3-.2-5.2,10.8h1.8l1.4-3.4h13.9l1.4,3.4h1.8l-3.5-7.4-.7,.6Z"/><polygon points="28.4 30.8 27.1 31 27 31.5 27.7 31.5 28.4 30.8"/><polygon points="25.4 24.1 24.9 21.3 23.1 21.7 21.9 21.9 22.4 24.7 25.4 24.1"/><path d="M23.4,18.4l-.7,.1h0l-.7,.1-4.9,2.4,1.1,5.8,2.4-3.5v-.2l-.1-.7c0-.1,0-.2,.1-.3,.1-.1,.2-.2,.3-.2l2.5-.5,2.2-.4c.2,0,.5,.1,.5,.4l.1,.7q0,.1,.1,.2l3.5,2.4-1-5.9-5.4-.4Zm-.9,2.7l-.4-2.1,1.3-.2,.4,2.1-1.3,.2Z"/><path d="M23,19.8c.2,0,.4-.2,.3-.4,0-.2-.2-.4-.4-.3-.2,0-.4,.2-.3,.4-.1,.2,.1,.3,.4,.3Z"/><path d="M23,20c-.2,0-.4,.2-.3,.4,0,.2,.2,.4,.4,.3,.2,0,.4-.2,.3-.4,0-.2-.2-.3-.4-.3Z"/><path d="M16.4,18.9l.3-.1,.3,1.6,4.9-2.4,.7-.1h0l.7-.1,5.4,.4-.3-1.6,.3-.1-.4-2.3-.3,.2-.1-.6-2.2-.7-3.9,.7h0l-3.8,.7-1.8,1.5,.1,.6-.3,.1,.4,2.2Zm6.6-3.6l4.1-.8c.2,0,.3,.1,.3,.2l.3,1.8c0,.2-.1,.3-.2,.2l-1.3-.2h-.6l-2.4,.5c-.2,0-.3-.1-.3-.2l-.2-1.1c0-.2,.2-.4,.3-.4Zm-5.8,1.1l4.1-.8c.2,0,.3,.1,.3,.2l.2,1.1c0,.2-.1,.3-.2,.3l-2.4,.6c-.2,0-.4,.1-.5,.2l-1.1,.7c-.1,.1-.3,0-.3-.1l-.3-1.8c-.1-.2,0-.3,.2-.4Z"/><path d="M34.6,21.7l-2.7,1.1-.1-2.9-1.5,2.5-.8-1.1,.3,1.2,.2,.2,.4,.6,.4-.6,.7-1.1v2l.6-.3,1.2-.5-.7,1-.4,.6,.7,.2,1.3,.3-1.3,.4-.7,.2,.4,.5,.2,.2,.5-.1-.3-.3,2.8-1-2.8-.7,1.6-2.4Z"/><path d="M31.1,27.3c.2,.1,.5,.1,.7,0,.2-.1,.4-.2,.5-.4,.1-.2,.1-.5,0-.7s-.2-.4-.4-.5c-.4-.2-1,0-1.2,.4-.1,.2-.1,.5,0,.7,0,.2,.2,.4,.4,.5Z"/><path d="M34.2,26.9c-.2,0-.3,.1-.3,.1l-1.1,.7-1.2,.1-1.8-.9-1.5,.4-1.2-.3h-.1c-.1,0-.4,0-.4,.3-.1,.4,.3,.5,.3,.5l1.6,.4,.7-.2-.9,1.8h0l-1.7,.2c-.2,0-.4,.2-.4,.4l-.6,2.2c0,.2,0,.4,.1,.5s.2,.1,.3,.2h.1c.2,0,.4-.2,.5-.4l.5-1.9,1.7-.2h0l-1.1,.9c-.1,.1-.2,.2-.2,.4,0,.1,0,.2,.1,.4h0l1.7,1.5c.1,.1,.2,.1,.4,.1s.3-.1,.4-.2c.2-.2,.2-.6,0-.7l-1.2-1.1,1.2-1.1s.1-.1,.1-.2h0l1.1-2.2h1.7l1.4-.9s.3-.2,.1-.5c-.1-.2-.2-.3-.3-.3Z"/></svg>