<?xml version="1.0" encoding="UTF-8"?><svg id="a" xmlns="http://www.w3.org/2000/svg" viewBox="0 0 48.05 41.7"><path d="M46.77,31.9L29.77,3.8c-1.4-2.4-3.5-3.8-5.8-3.8s-4.4,1.4-5.8,3.7L1.27,31.9c-1.4,2.4-1.7,4.9-.6,6.8,1.1,1.9,3.3,3,6.1,3H41.17c2.8,0,5-1.1,6.1-3,1.2-1.9,1-4.4-.5-6.8Zm-5.5,7.6H6.87c-4.1,0-5.8-2.9-3.6-6.4L20.17,5c2.1-3.5,5.6-3.5,7.8,0l17,28.1c2,3.5,.4,6.4-3.7,6.4Z"/><polygon points="16.47 38.9 16.47 38.1 15.67 38.9 16.47 38.9"/><path d="M35.17,18l-1.5,2,.4,1.3-5.3,7.1,4.6-7-.8-1.2,2-3.3-3.1-5v1.7l-2.4,2.5-.9,2.1-1.3,.7-1.7,3.4-1.2,.8-1,.9-.8,1.4-.5,.3,.2-.6-.5-.6-.6,.6-.1,.6,.4,.3-.2,.1-.7,1.7-.7-.6-1,.2-.1,.7,1.2,.6-1.2,1.7-1.8,.9-.2,.3-.3-.4-.6,.6-.1,.6,.3,.2-5.1,6.3h4.3l1.9-1.9,.7-1.2-.3,2.1,5.4-3.4-2.4-1.4,3.7-1.9,2.6-4.5,1.7-3.3,1.8-1-1.6,1.5-1.7,3.1-2.3,4.7-2.7,1.2,2.3,1.1-6.9,4.9h24.2c1.8,0,3.1-.6,3.7-1.6s.4-2.4-.5-4l-9.3-15.3Zm-7.8,16l-.2,1.7-3.3,2.7-.9-.2,3.5-3,.2-1.6,4.5-5.1-3.8,5.5Z"/><polygon points="17.97 27.2 18.47 25.8 17.77 24.4 16.37 24.4 15.67 25.9 16.37 26.9 17.97 27.2"/><polygon points="16.17 29.5 17.17 29.3 17.77 28.4 17.17 27.6 15.27 28.1 15.47 29 16.17 29.5"/><polygon points="24.67 22.2 24.77 21.2 24.07 20.5 23.17 20.8 23.17 22.6 24.07 22.6 24.67 22.2"/><polygon points="27.47 18.3 27.87 17.4 26.57 16.2 25.97 16.7 25.87 17.5 26.47 18.2 27.47 18.3"/><polygon points="13.67 31.6 14.17 30.9 14.37 29.5 13.27 28.6 11.77 30.2 12.57 31.5 13.67 31.6"/><polygon points="12.07 34.6 12.57 34 12.17 33.4 10.77 33 10.87 34.5 12.07 34.6"/><polygon points="5.67 35.1 5.77 37.1 7.57 37.7 9.77 37.3 10.07 34.7 7.17 33.3 5.67 35.1"/><polygon points="21.57 23.6 21.87 22.9 21.47 22.4 20.77 22.9 20.67 23.5 21.37 24 21.57 23.6"/><polygon points="13.47 32.8 13.57 33.6 13.97 33.6 14.67 33.4 14.87 32.7 13.97 32.5 13.47 32.8"/></svg>