<?xml version="1.0" encoding="UTF-8"?><svg id="a" xmlns="http://www.w3.org/2000/svg" viewBox="0 0 48 41.6"><path d="M46.8,31.8L29.8,3.7c-1.4-2.4-3.5-3.7-5.8-3.7s-4.4,1.4-5.8,3.7L1.3,31.8c-1.5,2.4-1.7,4.9-.6,6.8,1.1,1.9,3.3,3,6.1,3H41.2c2.8,0,5-1.1,6.1-3s.9-4.4-.5-6.8Zm-5.6,7.6H6.8c-4.1,0-5.8-2.9-3.6-6.4L20.2,4.9c2.1-3.5,5.6-3.5,7.8,0l16.9,28.1c2.1,3.5,.4,6.4-3.7,6.4Z"/><path d="M24.1,32.3c0,.2,.2,.1,.2,.1,.1,0,.1-.1,.1-.3v-.6h-.4c.1,.1,.1,.6,.1,.8Z"/><path d="M24.6,31.9c0,.3,.2,.4,.2,.4,.1,0,.2-.2,.2-.4v-.5h-.4v.5Z"/><path d="M25.1,31.5v.4c0,.2,.1,.3,.1,.3l.2-.2c0-.1,.1-.5,.1-.5,0,0,0-.1-.1-.1-.1,.1-.3,.1-.3,.1Z"/><path d="M25.6,31.4v.3h.2s.1-.2,.1-.3v-.2l-.2,.1s-.1,0-.1,.1Z"/><path d="M26.2,31.2c0-.1-.1-.3-.1-.3,0,0-.2-.1-.2,0v.2c0,.1,.1,.2,.1,.2,0,0,.1,0,.2-.1Z"/><path d="M26.5,30.4s-.2,0-.3,.1c0,.1,.1,.2,.2,.4,0,0,.1-.1,.1-.2v-.3Z"/><path d="M26.68,30.51s-.05,.05,0,0h0Z"/><path d="M26.8,30.1c.1,0-.1-.1-.1,0s-.1,.1-.1,.2,0,.1,.1,.2c0-.1,0-.4,.1-.4Z"/><path d="M33.6,32.6c-.3,0-.6-.2-1.2-.2s-.9-.1-1.6-.3-2.2-.9-2.2-.9c0,0-.1,.1-.4,.5s-.5,1.2-.5,1.2c0,0,.5,.3,.8,.4s1.7,.9,2.2,1.1c.4,.3,.7,1.3,.8,1.5,.1,.3,.7,.5,1,.5s1.2-.1,1.3-.6,.1-.9,.2-1.1c.1-.2,.7-.1,.7-.5,.1-.4,.1-1.1-.3-1.5-.2-.2-.5-.1-.8-.1Z"/><path d="M34.1,22.9c-.1-.6-.3-1.1-.5-1.3-.2-.2-1,.4-1.4,.6-.4,.2-.4,.8-.4,.8,0,0,.1,.2-.4,.6s-1.3,1.3-1.3,1.3c0,0,.2,.3,.5,.6,.3,.3-.3,1.2-.3,1.2,0,0,.9-.4,1-.4s.9-.2,1.5-.4c.6-.2,1.4,.2,1.8-.3,.4-.5,.8-1,.5-1.5s-1-.7-1-1.2Z"/><path d="M25.3,31c0,.1,.1,.1,0,0h0Z"/><path d="M25.9,30.5s.2,0,.2-.2c.07,0,.07-.07,0-.2-.2-.2-.3-.1-.3-.1,0,0,0,.1,.1,.2v.3Z"/><path d="M26.3,29.8c-.1,0-.2,.1-.2,.1l.1,.1,.2,.3s0-.2,.1-.3c0-.2-.1-.2-.2-.2Z"/><path d="M26.6,30s.2-.1,.2-.2c0-.2-.1-.3-.2-.3s-.2,.1-.2,.1c0,0,.1,.2,.1,.3s.1,.1,.1,.1Z"/><path d="M28.5,30.7c.3-.3,.2-.9,.1-1.3s0-1,0-1c0,0-.5,.2-.9,.1,0,0,0,.7-.2,1s-.1,.3-.3,.4c-.1,.1-.3,.2-.3,.3-.1,.1-.1,.4-.2,.4s-.1,.1-.1,.2,0,.2-.1,.2-.2,.1-.2,.1c0,0,.1,.2-.1,.2s-.2,.1-.2,.1c0,0,.1,.1-.1,.2-.1,.2-.3,.2-.3,.2,0,0-.1,.1-.1,.2s-.1,.3-.2,.3-.3-.1-.3-.1c0,0-.1,.2-.2,.2s-.3,.1-.3-.1c-.1-.2-.1,0-.1,0,0,0,0,.2-.2,.3s-.2-.3-.2-.3c0,0,0,.2-.2,.2s-.2-.3-.2-.3c0,0,0-.2-.1,0s-.3,.1-.3,.1c-.1,0-.2-.2-.2-.2,0,0-.2,.1-.3,.1s-.1-.2-.2-.3c0-.1-.2-.2-.2-.2,0,0-.2,0-.3-.1-.1-.1-.1-.2-.1-.2,0,0-.1,0-.3-.1-.2-.1-.1-.2-.1-.2,0,0-.1-.1-.2-.1s-.1-.2-.1-.2c0-.07-.03-.13-.1-.2-.1-.1-.1-.4-.2-.4l-.3-.3c-.07-.07-.17-.2-.3-.4-.1-.3-.2-1-.2-1-.4,0-.9-.1-.9-.1,0,0,.1,.6,0,1s-.2,1.1,.1,1.3c.3,.3,.6,.7,.6,.7,0,0,1.1,2,1.7,2.5s1.1,.6,1.4,.5,.8,0,.8,0h.8c.3,0,.7,0,1.4-.5,.6-.5,1.7-2.5,1.7-2.5,0,0,.5-.4,.8-.7Z"/><path d="M18,24.3c.1,.5,.2,.6,.2,.4,.1-.2,.2-1.1,.2-1.1,0,0,0-.2,.1-.6s.6-.8,.6-.8c.1-.2,0-.9-.1-1.3s-.2-1-.2-1c0,0,.1,.5,.3,1,.2,.4,.2,1.1,.2,1.1h.2c-.7,.3-.8,1.7-.8,1.7-.2,.3-.2,1.1-.3,1.3,0,.2-.1,.3-.2,.3-.2,0-.4,.3-.4,.5s.4,1.2,.5,1.5,.6,.6,.9,.8,.7,.2,.7,.2h1l.3,.2-.1,.7s-.7-2.1,0,.1v.1h.2s.06,.02,.08,.05c-.05,.04-.08,.09-.08,.15,0,.1,.2,.2,.2,.2,0,0,.1,.1,.1,0,0-.03,.01-.07,.02-.11,.04,.03,.08,.06,.08,.11,.02,.02,.03,.02,.04,.03-.08,.03-.14,.09-.14,.17,0,.2,.1,.3,.1,.3,0,0,.2-.2,.2-.3,0,0,.07-.03,.1-.06,.05,.03,.09,.06,.09,.06-.03,.03-.06,.05-.1,.1-.2,.2-.1,.2-.1,.3l.2,.2v-.3c.1-.2,.2-.3,.2-.3,0,0-.07-.12-.2-.01,0-.03,.02-.18,.3-.09,.07,.02,.12,.07,.15,.12-.01,.02-.03,.04-.05,.08-.1,.1-.1,.4-.2,.5v.4l.2,.1s.3-.5,.3-.6-.02-.17-.05-.23c.05-.04,.11-.07,.15-.07s.08,.03,.11,.07c-.04,.04-.07,.09-.11,.13-.1,.2-.2,.5-.2,.5v.1s.5,.2,.6,.2v-.7c0-.16,0-.19-.06-.25,.06-.03,.14-.05,.26-.05,.03,0,.06,.02,.09,.04-.04,.03-.09,.07-.09,.16-.1,.3-.1,.8-.1,.8,0,0,.3,.1,.6,0,0-.08-.01-.63-.1-.8-.02-.04-.04-.06-.05-.08,.04-.06,.12-.12,.25-.12,.09,0,.16,.02,.22,.05-.03,.03-.07,.07-.12,.15-.1,.2-.1,.9-.1,.9h.6s0-.6-.1-.9c-.01-.04-.03-.06-.04-.09,.04-.05,.09-.11,.14-.11s.13,.05,.19,.1h-.09c-.1,0-.1,.1-.1,.3v.7c.2-.1,.6-.2,.6-.3s-.1-.4-.2-.5c-.04-.09-.07-.13-.1-.16,0-.11,.04-.36,.2-.44s.25,.02,.28,.07c-.02,.01-.04,.03-.08,.03-.1,.1-.1,.2-.1,.4s.2,.5,.2,.5h.3v-.4c0-.1,0-.4-.2-.5-.02-.02-.04-.03-.05-.04,.04-.03,.09-.06,.15-.06,.07,0,.13-.03,.2-.1,.1-.1,.1-.2,.2-.2l.2-.2h.2v-.1c.7-2.1,0-.1,0-.1l-.1-.7,.3-.2h1s.4,0,.7-.2,.8-.5,.9-.8,.5-1.3,.5-1.5-.2-.5-.4-.5-.2-.1-.2-.3-.1-1-.3-1.3c0,0-.2-1.4-.8-1.7h.2s0-.7,.2-1.1,.3-1,.3-1c0,0,0,.6-.2,1-.1,.4-.2,1-.1,1.3,0,0,.4,.4,.6,.8,.1,.4,.1,.6,.1,.6,0,0,.2,.9,.2,1.1,.1,.2,.2,.1,.2-.4,.1-.5,.2-.9,.2-.9,0,0,.7-1.7,.1-3.9-.7-2.2-2.2-2.9-3.8-3.7-1.3-.7-2.1-.7-2.3-.7-.3,0-1.2,0-2.5,.7-1.6,.8-3.2,1.5-3.8,3.7-.7,2.2,.1,3.9,.1,3.9,0,0,.4,.4,.4,.9h0Zm7.1-.2c.1-.2,1.3-.8,1.5-.8s.8,.2,1.1,.2c.2,0,1,.1,1.1,1.3,.1,1.2-.1,1.5-.3,1.7s-1.1,.3-1.1,.3h-.2c-.1-.1-.8-.3-1-.5s-.7-.2-.7-.4c-.1-.2-.3-.7-.4-1-.1-.2-.1-.7,0-.8Zm-.9,2.1c0-.2,.1-.5,.2-.3,.2,.2,.8,1.3,.8,1.7s0,.3-.1,.6c-.1,.2-.4,.5-.4,.5,0,0-.2,.1-.2,0-.1-.2-.2-.9-.3-1.2v-1.3Zm-.3,0v1.3c0,.3-.2,1-.3,1.2-.1,.2-.2,0-.2,0,0,0-.3-.3-.4-.5s-.1-.1-.1-.6c0-.4,.7-1.5,.8-1.7,.1-.2,.1,.1,.2,.3Zm-3.6-2.7c.2,0,.8-.2,1.1-.2s1.4,.7,1.5,.8c.1,.2,.2,.6,.1,.9s-.3,.8-.4,1-.5,.2-.7,.4l-1,.5h-.2s-.8-.1-1.1-.3c-.2-.2-.4-.5-.3-1.7,.1-1.3,.8-1.4,1-1.4Z"/><path d="M23.6,31.6s0,.4,.1,.5c0,.2,.1,.3,.1,.3,0,0,.1,0,.2-.1v-.7h-.4Z"/><path d="M23.3,32.3s.2-.1,.2-.3v-.5h-.4s-.2,0-.3-.1-.1,.1-.1,.1v.4c0,.1,.2,.2,.2,.2l.2-.2v.1c0,.1,.1,.3,.2,.3Z"/><path d="M22.5,31.4c0-.1-.1-.1-.1-.1l-.2-.1v.2c0,.1,0,.3,.1,.3h.1s.1-.2,.1-.3Z"/><path d="M22,31.2s.1-.1,.1-.2v-.2h-.2s-.1,.2-.1,.3,.2,.1,.2,.1Z"/><path d="M21.5,30.4v.3l.2,.2c.1-.2,.1-.3,.1-.4s-.3-.1-.3-.1Z"/><path d="M21.71,30.91s.05,.05,0,0h0Z"/><path d="M21.4,30.1c0-.1-.1,0,0,0h0Z"/><path d="M21.3,30.6s.1,.1,.1,0v-.3c.1-.1,.1-.2,0-.2-.1,.1-.1,.4-.1,.4v.1Z"/><path d="M19.5,31.3s-1.4,.6-2.2,.9c-.7,.2-.9,.2-1.6,.3-.7,0-.9,.2-1.2,.2s-.6-.1-.9,.2c-.3,.3-.3,1.1-.3,1.5s.6,.3,.7,.5c.1,.2,.2,.6,.2,1.1,.1,.5,1,.6,1.3,.6s.9-.2,1-.5,.4-1.3,.8-1.5c.4-.3,1.8-1,2.2-1.1,.3-.1,.8-.4,.8-.4,0,0-.2-.8-.5-1.2-.3-.5-.3-.6-.3-.6Z"/><path d="M15.3,26c.6,.1,1.4,.3,1.5,.4s1,.4,1,.4c0,0-.6-.9-.3-1.2s.5-.6,.5-.6l-1.3-1.3c-.5-.5-.4-.6-.4-.6,0,0,.1-.7-.4-.8-.4-.2-1.2-.7-1.4-.6s-.4,.7-.5,1.3c-.1,.6-.8,.7-1,1.3-.3,.5,.1,1,.5,1.5,.3,.4,1.2,.1,1.8,.2Z"/></svg>