<svg width="20" height="20" viewBox="0 0 20 20" fill="none" xmlns="http://www.w3.org/2000/svg">
<g clip-path="url(#clip0_663_16128)">
<path fill-rule="evenodd" clip-rule="evenodd" d="M12.4394 8.90871L13.9903 6.22259C14.1735 5.90566 14.1735 5.51521 13.9903 5.19828L12.4394 2.51216C12.2562 2.19522 11.9182 2 11.5525 2H8.45059C8.08485 2 7.74622 2.19522 7.56366 2.51216L6.01272 5.19828C5.82955 5.51521 5.82955 5.90566 6.01272 6.22259L7.56366 8.90871C7.74683 9.22565 8.08485 9.42087 8.45059 9.42087H11.5525C11.9182 9.42087 12.2568 9.22565 12.4394 8.90871ZM19.8627 14.2805L18.3118 11.5944C18.1286 11.2774 17.7906 11.0822 17.4249 11.0822H14.323C13.9573 11.0822 13.6186 11.2774 13.4361 11.5944L11.8851 14.2805C11.702 14.5974 11.702 14.9879 11.8851 15.3048L13.4361 17.9915C13.6192 18.3085 13.9573 18.5037 14.323 18.5037H17.4249C17.7906 18.5037 18.1292 18.3085 18.3118 17.9915L19.8627 15.3048C20.0459 14.9879 20.0459 14.5974 19.8627 14.2805ZM5.67712 11.0822C6.04286 11.0822 6.38089 11.2774 6.56406 11.5944L8.11499 14.2805C8.29817 14.5974 8.29817 14.9879 8.11499 15.3048L6.56406 17.9915C6.38149 18.3085 6.04286 18.5037 5.67712 18.5037H2.57525C2.20951 18.5037 1.87149 18.3085 1.68831 17.9915L0.137379 15.3048C-0.045793 14.9879 -0.045793 14.5974 0.137379 14.2805L1.68831 11.5944C1.87088 11.2774 2.20951 11.0822 2.57525 11.0822H5.67712Z" fill="#41484D"/>
</g>
<defs>
<clipPath id="clip0_663_16128">
<rect width="20" height="20" fill="white"/>
</clipPath>
</defs>
</svg>
