<svg xmlns="http://www.w3.org/2000/svg" viewBox="0 0 500 500">
  <path d="M116.6 264.24c-21.75 0-39.39 17.63-39.39 39.39s17.63 39.39 39.39 39.39 39.39-17.63 39.39-39.39-17.63-39.39-39.39-39.39Zm0 54c-8.07 0-14.61-6.54-14.61-14.61s6.54-14.61 14.61-14.61 14.61 6.54 14.61 14.61-6.54 14.61-14.61 14.61Zm249.01-54c-21.75 0-39.39 17.63-39.39 39.39s17.63 39.39 39.39 39.39S405 325.39 405 303.63s-17.63-39.39-39.39-39.39Zm0 54c-8.07 0-14.61-6.54-14.61-14.61s6.54-14.61 14.61-14.61 14.61 6.54 14.61 14.61-6.54 14.61-14.61 14.61Z"/>
  <path d="M442.48 248.99v-42.45H311.52v-40.52c0-4.98-4.04-9.02-9.02-9.02h-94.42l-60.03 43.18h-81.5c-4.98 0-9.02 4.04-9.02 9.02v35.99l-7.52 7.2v16.94h25.66C85.06 256.98 99.9 249 116.61 249s31.56 7.98 40.95 20.33h167.13c9.39-12.35 24.23-20.33 40.94-20.33s31.56 7.98 40.95 20.33h43.44v-15.25L442.5 249Zm-189.51-42.45h-74.51l-6.42-6.35 42.51-31.13 38.43-.1v37.58Zm46.29 0h-27.47v-37.58h18.44c4.98 0 9.02 4.04 9.02 9.02v28.56Zm6.01 78.37H176.95a4.511 4.511 0 0 0 0 9.02h128.32a4.511 4.511 0 0 0 0-9.02Z"/>
</svg>
