<svg width="20" height="20" viewBox="0 0 20 20" fill="none" xmlns="http://www.w3.org/2000/svg">
<g clip-path="url(#clip0_663_16136)">
<path fill-rule="evenodd" clip-rule="evenodd" d="M4.10024 17.1149V1.65039H19.8199V16.2552C19.8199 17.8587 18.6193 19.158 17.1387 19.158H2.99023C3.66228 18.698 4.10024 17.9536 4.10024 17.1149ZM12.6993 7.81636H10.5472V8.89832H12.6993V7.81636ZM10.5461 4.59045H6.1606V4.59099V8.89778H8.39733V7.82122H10.5461V6.74519H8.39733V5.66971H10.5461V4.59045ZM6.35477 15.7401H10.3784C10.599 15.7401 10.7781 15.4505 10.7781 15.0929C10.7781 14.7353 10.599 14.4456 10.3784 14.4456H6.35477C6.13417 14.4456 5.9551 14.7353 5.9551 15.0929C5.9551 15.4505 6.13417 15.7401 6.35477 15.7401ZM6.60233 13.2062H13.1216C13.4792 13.2062 13.7688 12.9166 13.7688 12.559C13.7688 12.2014 13.4792 11.9117 13.1216 11.9117H6.60233C6.24474 11.9117 5.9551 12.2014 5.9551 12.559C5.9551 12.9166 6.24474 13.2062 6.60233 13.2062ZM15.7456 8.88052H17.9499V5.67726H14.8136L14.2181 7.20311V7.19232L14.217 7.20311L13.621 5.67726H10.5478V6.73548H12.6836L12.6879 6.75544V6.73009L13.5272 8.88052H14.9063L15.7456 6.73009V8.88052ZM-0.179688 12.5586H3.12929V17.1151C3.12929 17.9738 2.35585 18.6728 1.40495 18.6728C0.695156 18.6728 0.0845993 18.2834 -0.179688 17.7289V12.5586Z" fill="#41484D"/>
</g>
<defs>
<clipPath id="clip0_663_16136">
<rect width="20" height="20" fill="white"/>
</clipPath>
</defs>
</svg>
